<?xml version="1.0" encoding="UTF-8" standalone="no"?>
<svg
   width="400pt"
   height="91.138893pt"
   viewBox="0 0 400 91.138892"
   version="1.2"
   id="svg8871"
   sodipodi:docname="Berufliche Hochschule Hamburg Logo 2020-10-08.svg"
   inkscape:version="1.1.1 (3bf5ae0d25, 2021-09-20)"
   xmlns:inkscape="http://www.inkscape.org/namespaces/inkscape"
   xmlns:sodipodi="http://sodipodi.sourceforge.net/DTD/sodipodi-0.dtd"
   xmlns="http://www.w3.org/2000/svg"
   xmlns:svg="http://www.w3.org/2000/svg">
  <sodipodi:namedview
     id="namedview8873"
     pagecolor="#ffffff"
     bordercolor="#111111"
     borderopacity="1"
     inkscape:pageshadow="0"
     inkscape:pageopacity="0"
     inkscape:pagecheckerboard="1"
     inkscape:document-units="pt"
     showgrid="false"
     fit-margin-top="0"
     fit-margin-left="0"
     fit-margin-right="0"
     fit-margin-bottom="0"
     inkscape:zoom="1.1616719"
     inkscape:cx="301.7203"
     inkscape:cy="52.940937"
     inkscape:window-width="1600"
     inkscape:window-height="837"
     inkscape:window-x="-8"
     inkscape:window-y="-8"
     inkscape:window-maximized="1"
     inkscape:current-layer="svg8871" />
  <defs
     id="defs1264">
    <clipPath
       id="clip2">
      <path
         d="m 445.27734,35.976562 c -0.16797,0 -0.30468,0.136719 -0.30468,0.308594 v 12.367188 c 0,1.980468 -1.60547,3.585937 -3.58594,3.585937 h -12.64453 c -0.16797,0 -0.30469,0.136719 -0.30469,0.304688 v 3.703125 c 0,0.167968 0.13672,0.308594 0.30469,0.308594 h 12.64453 c 4.36328,0 7.89844,-3.539063 7.89844,-7.902344 V 36.285156 c 0,-0.171875 -0.13672,-0.308594 -0.30469,-0.308594 z m 7.59375,18.417969 c -4.35937,0 -7.89843,3.539063 -7.89843,7.902344 v 12.367187 c 0,0.167969 0.13671,0.304688 0.30468,0.304688 h 3.70313 c 0.16797,0 0.30469,-0.136719 0.30469,-0.304688 V 62.296875 c 0,-1.980469 1.60937,-3.585937 3.58593,-3.585937 h 12.64453 c 0.16797,0 0.30469,-0.136719 0.30469,-0.308594 v -3.703125 c 0,-0.167969 -0.13672,-0.304688 -0.30469,-0.304688 z m 0,0"
         id="path718" />
    </clipPath>
    <linearGradient
       id="linear0"
       gradientUnits="userSpaceOnUse"
       x1="-0.38913199"
       y1="0"
       x2="1.389129"
       y2="0"
       gradientTransform="matrix(21.474078,-21.474078,21.474078,21.474078,436.39267,66.210185)">
      <stop
         offset="0"
         style="stop-color:rgb(0%,60.392761%,66.275024%);stop-opacity:1;"
         id="stop721" />
      <stop
         offset="0.125"
         style="stop-color:rgb(0%,60.392761%,66.275024%);stop-opacity:1;"
         id="stop723" />
      <stop
         offset="0.1875"
         style="stop-color:rgb(0%,60.392761%,66.275024%);stop-opacity:1;"
         id="stop725" />
      <stop
         offset="0.21875"
         style="stop-color:rgb(0%,60.392761%,66.275024%);stop-opacity:1;"
         id="stop727" />
      <stop
         offset="0.222656"
         style="stop-color:rgb(0%,60.00061%,66.275024%);stop-opacity:1;"
         id="stop729" />
      <stop
         offset="0.226562"
         style="stop-color:rgb(0%,59.608459%,66.275024%);stop-opacity:1;"
         id="stop731" />
      <stop
         offset="0.230469"
         style="stop-color:rgb(0%,59.608459%,66.275024%);stop-opacity:1;"
         id="stop733" />
      <stop
         offset="0.234375"
         style="stop-color:rgb(0%,59.216309%,65.882874%);stop-opacity:1;"
         id="stop735" />
      <stop
         offset="0.238281"
         style="stop-color:rgb(0%,59.216309%,65.882874%);stop-opacity:1;"
         id="stop737" />
      <stop
         offset="0.242188"
         style="stop-color:rgb(0%,58.824158%,65.490723%);stop-opacity:1;"
         id="stop739" />
      <stop
         offset="0.246094"
         style="stop-color:rgb(0%,58.432007%,65.490723%);stop-opacity:1;"
         id="stop741" />
      <stop
         offset="0.25"
         style="stop-color:rgb(0%,58.039856%,65.490723%);stop-opacity:1;"
         id="stop743" />
      <stop
         offset="0.253906"
         style="stop-color:rgb(0%,57.647705%,65.490723%);stop-opacity:1;"
         id="stop745" />
      <stop
         offset="0.257812"
         style="stop-color:rgb(0%,57.255554%,65.490723%);stop-opacity:1;"
         id="stop747" />
      <stop
         offset="0.261719"
         style="stop-color:rgb(0%,57.255554%,65.098572%);stop-opacity:1;"
         id="stop749" />
      <stop
         offset="0.265625"
         style="stop-color:rgb(0%,56.863403%,65.098572%);stop-opacity:1;"
         id="stop751" />
      <stop
         offset="0.273438"
         style="stop-color:rgb(0%,56.471252%,64.706421%);stop-opacity:1;"
         id="stop753" />
      <stop
         offset="0.277344"
         style="stop-color:rgb(0%,56.079102%,64.31427%);stop-opacity:1;"
         id="stop755" />
      <stop
         offset="0.28125"
         style="stop-color:rgb(0%,55.686951%,64.31427%);stop-opacity:1;"
         id="stop757" />
      <stop
         offset="0.285156"
         style="stop-color:rgb(0%,55.2948%,64.31427%);stop-opacity:1;"
         id="stop759" />
      <stop
         offset="0.289062"
         style="stop-color:rgb(0%,54.902649%,64.31427%);stop-opacity:1;"
         id="stop761" />
      <stop
         offset="0.292969"
         style="stop-color:rgb(0%,54.510498%,64.31427%);stop-opacity:1;"
         id="stop763" />
      <stop
         offset="0.296875"
         style="stop-color:rgb(0%,54.510498%,63.922119%);stop-opacity:1;"
         id="stop765" />
      <stop
         offset="0.300781"
         style="stop-color:rgb(0%,54.118347%,63.922119%);stop-opacity:1;"
         id="stop767" />
      <stop
         offset="0.304688"
         style="stop-color:rgb(0%,53.726196%,63.529968%);stop-opacity:1;"
         id="stop769" />
      <stop
         offset="0.308594"
         style="stop-color:rgb(0%,53.726196%,63.529968%);stop-opacity:1;"
         id="stop771" />
      <stop
         offset="0.3125"
         style="stop-color:rgb(0%,53.334045%,63.529968%);stop-opacity:1;"
         id="stop773" />
      <stop
         offset="0.316406"
         style="stop-color:rgb(0%,52.941895%,63.137817%);stop-opacity:1;"
         id="stop775" />
      <stop
         offset="0.320312"
         style="stop-color:rgb(0%,52.549744%,63.137817%);stop-opacity:1;"
         id="stop777" />
      <stop
         offset="0.324219"
         style="stop-color:rgb(0%,52.549744%,63.137817%);stop-opacity:1;"
         id="stop779" />
      <stop
         offset="0.328125"
         style="stop-color:rgb(0%,52.157593%,63.137817%);stop-opacity:1;"
         id="stop781" />
      <stop
         offset="0.335938"
         style="stop-color:rgb(0%,51.765442%,62.745667%);stop-opacity:1;"
         id="stop783" />
      <stop
         offset="0.339844"
         style="stop-color:rgb(0%,51.373291%,62.353516%);stop-opacity:1;"
         id="stop785" />
      <stop
         offset="0.34375"
         style="stop-color:rgb(0%,50.98114%,62.353516%);stop-opacity:1;"
         id="stop787" />
      <stop
         offset="0.347656"
         style="stop-color:rgb(0%,50.588989%,62.353516%);stop-opacity:1;"
         id="stop789" />
      <stop
         offset="0.351562"
         style="stop-color:rgb(0%,50.196838%,61.961365%);stop-opacity:1;"
         id="stop791" />
      <stop
         offset="0.355469"
         style="stop-color:rgb(0%,50.196838%,61.961365%);stop-opacity:1;"
         id="stop793" />
      <stop
         offset="0.359375"
         style="stop-color:rgb(0%,49.803162%,61.569214%);stop-opacity:1;"
         id="stop795" />
      <stop
         offset="0.363281"
         style="stop-color:rgb(0%,49.803162%,61.569214%);stop-opacity:1;"
         id="stop797" />
      <stop
         offset="0.367188"
         style="stop-color:rgb(0%,49.411011%,61.177063%);stop-opacity:1;"
         id="stop799" />
      <stop
         offset="0.371094"
         style="stop-color:rgb(0%,49.01886%,61.177063%);stop-opacity:1;"
         id="stop801" />
      <stop
         offset="0.375"
         style="stop-color:rgb(0%,48.626709%,61.177063%);stop-opacity:1;"
         id="stop803" />
      <stop
         offset="0.378906"
         style="stop-color:rgb(0%,48.234558%,61.177063%);stop-opacity:1;"
         id="stop805" />
      <stop
         offset="0.382812"
         style="stop-color:rgb(0%,47.842407%,61.177063%);stop-opacity:1;"
         id="stop807" />
      <stop
         offset="0.386719"
         style="stop-color:rgb(0%,47.842407%,60.784912%);stop-opacity:1;"
         id="stop809" />
      <stop
         offset="0.390625"
         style="stop-color:rgb(0%,47.450256%,60.784912%);stop-opacity:1;"
         id="stop811" />
      <stop
         offset="0.394531"
         style="stop-color:rgb(0%,47.058105%,60.392761%);stop-opacity:1;"
         id="stop813" />
      <stop
         offset="0.398438"
         style="stop-color:rgb(0%,47.058105%,60.392761%);stop-opacity:1;"
         id="stop815" />
      <stop
         offset="0.402344"
         style="stop-color:rgb(0%,46.665955%,60.00061%);stop-opacity:1;"
         id="stop817" />
      <stop
         offset="0.40625"
         style="stop-color:rgb(0%,46.273804%,60.00061%);stop-opacity:1;"
         id="stop819" />
      <stop
         offset="0.410156"
         style="stop-color:rgb(0%,45.881653%,60.00061%);stop-opacity:1;"
         id="stop821" />
      <stop
         offset="0.414062"
         style="stop-color:rgb(0%,45.489502%,59.608459%);stop-opacity:1;"
         id="stop823" />
      <stop
         offset="0.417969"
         style="stop-color:rgb(0%,45.489502%,59.608459%);stop-opacity:1;"
         id="stop825" />
      <stop
         offset="0.421875"
         style="stop-color:rgb(0%,45.097351%,59.216309%);stop-opacity:1;"
         id="stop827" />
      <stop
         offset="0.425781"
         style="stop-color:rgb(0%,45.097351%,59.216309%);stop-opacity:1;"
         id="stop829" />
      <stop
         offset="0.429688"
         style="stop-color:rgb(0%,44.7052%,58.824158%);stop-opacity:1;"
         id="stop831" />
      <stop
         offset="0.433594"
         style="stop-color:rgb(0%,44.313049%,58.824158%);stop-opacity:1;"
         id="stop833" />
      <stop
         offset="0.4375"
         style="stop-color:rgb(0%,43.920898%,58.432007%);stop-opacity:1;"
         id="stop835" />
      <stop
         offset="0.441406"
         style="stop-color:rgb(0%,43.528748%,58.432007%);stop-opacity:1;"
         id="stop837" />
      <stop
         offset="0.445312"
         style="stop-color:rgb(0%,43.136597%,58.432007%);stop-opacity:1;"
         id="stop839" />
      <stop
         offset="0.449219"
         style="stop-color:rgb(0%,42.744446%,58.039856%);stop-opacity:1;"
         id="stop841" />
      <stop
         offset="0.453125"
         style="stop-color:rgb(0%,42.744446%,57.647705%);stop-opacity:1;"
         id="stop843" />
      <stop
         offset="0.457031"
         style="stop-color:rgb(0%,42.352295%,57.647705%);stop-opacity:1;"
         id="stop845" />
      <stop
         offset="0.460938"
         style="stop-color:rgb(0%,41.960144%,57.255554%);stop-opacity:1;"
         id="stop847" />
      <stop
         offset="0.46875"
         style="stop-color:rgb(0%,41.567993%,56.863403%);stop-opacity:1;"
         id="stop849" />
      <stop
         offset="0.472656"
         style="stop-color:rgb(0%,41.175842%,56.863403%);stop-opacity:1;"
         id="stop851" />
      <stop
         offset="0.476562"
         style="stop-color:rgb(0%,40.783691%,56.471252%);stop-opacity:1;"
         id="stop853" />
      <stop
         offset="0.480469"
         style="stop-color:rgb(0%,40.391541%,56.471252%);stop-opacity:1;"
         id="stop855" />
      <stop
         offset="0.484375"
         style="stop-color:rgb(0%,40.391541%,56.079102%);stop-opacity:1;"
         id="stop857" />
      <stop
         offset="0.488281"
         style="stop-color:rgb(0%,39.99939%,56.079102%);stop-opacity:1;"
         id="stop859" />
      <stop
         offset="0.492188"
         style="stop-color:rgb(0%,39.607239%,55.686951%);stop-opacity:1;"
         id="stop861" />
      <stop
         offset="0.496094"
         style="stop-color:rgb(0%,39.215088%,55.686951%);stop-opacity:1;"
         id="stop863" />
      <stop
         offset="0.5"
         style="stop-color:rgb(0%,38.822937%,55.2948%);stop-opacity:1;"
         id="stop865" />
      <stop
         offset="0.503906"
         style="stop-color:rgb(0%,38.822937%,54.902649%);stop-opacity:1;"
         id="stop867" />
      <stop
         offset="0.507812"
         style="stop-color:rgb(0%,38.430786%,54.902649%);stop-opacity:1;"
         id="stop869" />
      <stop
         offset="0.511719"
         style="stop-color:rgb(0%,38.038635%,54.510498%);stop-opacity:1;"
         id="stop871" />
      <stop
         offset="0.515625"
         style="stop-color:rgb(0%,37.646484%,54.510498%);stop-opacity:1;"
         id="stop873" />
      <stop
         offset="0.519531"
         style="stop-color:rgb(0%,37.646484%,54.118347%);stop-opacity:1;"
         id="stop875" />
      <stop
         offset="0.523438"
         style="stop-color:rgb(0%,37.254333%,54.118347%);stop-opacity:1;"
         id="stop877" />
      <stop
         offset="0.527344"
         style="stop-color:rgb(0%,36.862183%,53.726196%);stop-opacity:1;"
         id="stop879" />
      <stop
         offset="0.53125"
         style="stop-color:rgb(0%,36.470032%,53.726196%);stop-opacity:1;"
         id="stop881" />
      <stop
         offset="0.539062"
         style="stop-color:rgb(0%,36.470032%,53.726196%);stop-opacity:1;"
         id="stop883" />
      <stop
         offset="0.542969"
         style="stop-color:rgb(0%,35.68573%,52.941895%);stop-opacity:1;"
         id="stop885" />
      <stop
         offset="0.546875"
         style="stop-color:rgb(0%,35.293579%,52.549744%);stop-opacity:1;"
         id="stop887" />
      <stop
         offset="0.550781"
         style="stop-color:rgb(0%,35.293579%,52.549744%);stop-opacity:1;"
         id="stop889" />
      <stop
         offset="0.554688"
         style="stop-color:rgb(0%,34.901428%,52.157593%);stop-opacity:1;"
         id="stop891" />
      <stop
         offset="0.558594"
         style="stop-color:rgb(0%,34.509277%,52.157593%);stop-opacity:1;"
         id="stop893" />
      <stop
         offset="0.5625"
         style="stop-color:rgb(0%,34.117126%,51.765442%);stop-opacity:1;"
         id="stop895" />
      <stop
         offset="0.566406"
         style="stop-color:rgb(0%,33.724976%,51.765442%);stop-opacity:1;"
         id="stop897" />
      <stop
         offset="0.570312"
         style="stop-color:rgb(0%,33.724976%,51.765442%);stop-opacity:1;"
         id="stop899" />
      <stop
         offset="0.574219"
         style="stop-color:rgb(0%,33.332825%,51.373291%);stop-opacity:1;"
         id="stop901" />
      <stop
         offset="0.578125"
         style="stop-color:rgb(0%,32.940674%,50.98114%);stop-opacity:1;"
         id="stop903" />
      <stop
         offset="0.582031"
         style="stop-color:rgb(0%,32.940674%,50.98114%);stop-opacity:1;"
         id="stop905" />
      <stop
         offset="0.585938"
         style="stop-color:rgb(0%,32.548523%,50.588989%);stop-opacity:1;"
         id="stop907" />
      <stop
         offset="0.59375"
         style="stop-color:rgb(0%,32.156372%,50.196838%);stop-opacity:1;"
         id="stop909" />
      <stop
         offset="0.597656"
         style="stop-color:rgb(0%,31.764221%,50.196838%);stop-opacity:1;"
         id="stop911" />
      <stop
         offset="0.601562"
         style="stop-color:rgb(0%,31.37207%,49.803162%);stop-opacity:1;"
         id="stop913" />
      <stop
         offset="0.605469"
         style="stop-color:rgb(0%,30.979919%,49.411011%);stop-opacity:1;"
         id="stop915" />
      <stop
         offset="0.609375"
         style="stop-color:rgb(0%,30.587769%,49.01886%);stop-opacity:1;"
         id="stop917" />
      <stop
         offset="0.613281"
         style="stop-color:rgb(0%,30.587769%,49.01886%);stop-opacity:1;"
         id="stop919" />
      <stop
         offset="0.617188"
         style="stop-color:rgb(0%,30.195618%,48.626709%);stop-opacity:1;"
         id="stop921" />
      <stop
         offset="0.621094"
         style="stop-color:rgb(0%,30.195618%,48.626709%);stop-opacity:1;"
         id="stop923" />
      <stop
         offset="0.625"
         style="stop-color:rgb(0%,29.803467%,48.234558%);stop-opacity:1;"
         id="stop925" />
      <stop
         offset="0.628906"
         style="stop-color:rgb(0%,29.411316%,48.234558%);stop-opacity:1;"
         id="stop927" />
      <stop
         offset="0.632812"
         style="stop-color:rgb(0%,29.019165%,47.842407%);stop-opacity:1;"
         id="stop929" />
      <stop
         offset="0.636719"
         style="stop-color:rgb(0%,28.627014%,47.450256%);stop-opacity:1;"
         id="stop931" />
      <stop
         offset="0.640625"
         style="stop-color:rgb(0%,28.627014%,47.450256%);stop-opacity:1;"
         id="stop933" />
      <stop
         offset="0.644531"
         style="stop-color:rgb(0%,28.234863%,47.058105%);stop-opacity:1;"
         id="stop935" />
      <stop
         offset="0.648438"
         style="stop-color:rgb(0%,28.234863%,47.058105%);stop-opacity:1;"
         id="stop937" />
      <stop
         offset="0.652344"
         style="stop-color:rgb(0%,27.842712%,46.665955%);stop-opacity:1;"
         id="stop939" />
      <stop
         offset="0.65625"
         style="stop-color:rgb(0%,27.450562%,46.665955%);stop-opacity:1;"
         id="stop941" />
      <stop
         offset="0.660156"
         style="stop-color:rgb(0%,27.058411%,46.273804%);stop-opacity:1;"
         id="stop943" />
      <stop
         offset="0.664062"
         style="stop-color:rgb(0%,26.66626%,45.881653%);stop-opacity:1;"
         id="stop945" />
      <stop
         offset="0.671875"
         style="stop-color:rgb(0%,26.66626%,45.881653%);stop-opacity:1;"
         id="stop947" />
      <stop
         offset="0.675781"
         style="stop-color:rgb(0%,25.881958%,45.489502%);stop-opacity:1;"
         id="stop949" />
      <stop
         offset="0.679688"
         style="stop-color:rgb(0%,25.881958%,45.097351%);stop-opacity:1;"
         id="stop951" />
      <stop
         offset="0.683594"
         style="stop-color:rgb(0%,25.489807%,45.097351%);stop-opacity:1;"
         id="stop953" />
      <stop
         offset="0.6875"
         style="stop-color:rgb(0%,25.097656%,44.7052%);stop-opacity:1;"
         id="stop955" />
      <stop
         offset="0.691406"
         style="stop-color:rgb(0%,25.097656%,44.313049%);stop-opacity:1;"
         id="stop957" />
      <stop
         offset="0.695312"
         style="stop-color:rgb(0%,24.705505%,44.313049%);stop-opacity:1;"
         id="stop959" />
      <stop
         offset="0.699219"
         style="stop-color:rgb(0%,24.313354%,43.920898%);stop-opacity:1;"
         id="stop961" />
      <stop
         offset="0.703125"
         style="stop-color:rgb(0%,23.921204%,43.528748%);stop-opacity:1;"
         id="stop963" />
      <stop
         offset="0.707031"
         style="stop-color:rgb(0%,23.921204%,43.528748%);stop-opacity:1;"
         id="stop965" />
      <stop
         offset="0.710938"
         style="stop-color:rgb(0%,23.529053%,43.136597%);stop-opacity:1;"
         id="stop967" />
      <stop
         offset="0.71875"
         style="stop-color:rgb(0%,23.136902%,42.744446%);stop-opacity:1;"
         id="stop969" />
      <stop
         offset="0.722656"
         style="stop-color:rgb(0%,22.744751%,42.744446%);stop-opacity:1;"
         id="stop971" />
      <stop
         offset="0.726563"
         style="stop-color:rgb(0%,22.3526%,42.352295%);stop-opacity:1;"
         id="stop973" />
      <stop
         offset="0.730469"
         style="stop-color:rgb(0%,22.3526%,41.960144%);stop-opacity:1;"
         id="stop975" />
      <stop
         offset="0.734375"
         style="stop-color:rgb(0%,21.960449%,41.567993%);stop-opacity:1;"
         id="stop977" />
      <stop
         offset="0.738281"
         style="stop-color:rgb(0%,21.568298%,41.567993%);stop-opacity:1;"
         id="stop979" />
      <stop
         offset="0.742188"
         style="stop-color:rgb(0%,21.568298%,41.175842%);stop-opacity:1;"
         id="stop981" />
      <stop
         offset="0.746094"
         style="stop-color:rgb(0%,21.176147%,41.175842%);stop-opacity:1;"
         id="stop983" />
      <stop
         offset="0.75"
         style="stop-color:rgb(0%,20.783997%,40.783691%);stop-opacity:1;"
         id="stop985" />
      <stop
         offset="0.753906"
         style="stop-color:rgb(0%,20.391846%,40.391541%);stop-opacity:1;"
         id="stop987" />
      <stop
         offset="0.757812"
         style="stop-color:rgb(0%,20.391846%,40.391541%);stop-opacity:1;"
         id="stop989" />
      <stop
         offset="0.761719"
         style="stop-color:rgb(0%,19.999695%,39.99939%);stop-opacity:1;"
         id="stop991" />
      <stop
         offset="0.765625"
         style="stop-color:rgb(0%,19.607544%,39.607239%);stop-opacity:1;"
         id="stop993" />
      <stop
         offset="0.769531"
         style="stop-color:rgb(0%,19.607544%,39.607239%);stop-opacity:1;"
         id="stop995" />
      <stop
         offset="0.773437"
         style="stop-color:rgb(0%,19.215393%,39.215088%);stop-opacity:1;"
         id="stop997" />
      <stop
         offset="0.78125"
         style="stop-color:rgb(0%,18.823242%,38.822937%);stop-opacity:1;"
         id="stop999" />
      <stop
         offset="0.8125"
         style="stop-color:rgb(0%,18.823242%,38.822937%);stop-opacity:1;"
         id="stop1001" />
      <stop
         offset="0.875"
         style="stop-color:rgb(0%,18.823242%,38.822937%);stop-opacity:1;"
         id="stop1003" />
      <stop
         offset="1"
         style="stop-color:rgb(0%,18.823242%,38.822937%);stop-opacity:1;"
         id="stop1005" />
    </linearGradient>
  </defs>
  <path
     style="fill:#000000;fill-opacity:1;fill-rule:nonzero;stroke:none;stroke-width:2.33199"
     d="m 227.54208,13.354284 c 0,-0.482794 -0.0821,-0.947371 -0.25507,-1.393728 -0.17304,-0.455465 -0.4008,-0.847167 -0.71051,-1.202432 -0.30974,-0.346154 -0.66499,-0.619435 -1.08403,-0.82895 -0.41901,-0.200411 -0.86538,-0.309716 -1.33907,-0.309716 h -7.35123 v 7.433217 h 7.16905 c 0.51013,0 0.9838,-0.100205 1.42105,-0.309718 0.42815,-0.200412 0.80162,-0.482795 1.12045,-0.828951 0.30973,-0.346153 0.56478,-0.746964 0.75608,-1.184212 0.18212,-0.446357 0.27328,-0.901825 0.27328,-1.37551 M 216.80217,1.275307 v 7.251031 h 6.6316 c 0.501,0 0.94737,-0.100206 1.35729,-0.309719 0.40991,-0.200411 0.75607,-0.464577 1.05669,-0.801621 0.30059,-0.327937 0.52834,-0.719636 0.70142,-1.156884 0.17303,-0.446359 0.25505,-0.892716 0.25505,-1.357293 0,-0.491903 -0.0819,-0.95648 -0.23684,-1.393728 -0.16394,-0.428139 -0.38259,-0.81073 -0.66499,-1.138666 -0.28238,-0.337045 -0.61942,-0.601217 -1.01113,-0.801621 -0.3917,-0.191294 -0.82895,-0.291499 -1.30262,-0.291499 z m 12.04254,12.252055 c 0,0.664981 -0.12756,1.284416 -0.38259,1.849195 -0.25505,0.573889 -0.60121,1.074901 -1.03846,1.493931 -0.44636,0.428137 -0.96558,0.756076 -1.5577,0.992917 -0.60121,0.245953 -1.22975,0.364374 -1.89474,0.364374 h -8.47167 V 0.100201 h 8.44434 c 0.62854,0 1.20245,0.145749 1.71257,0.409922 0.51012,0.273279 0.94737,0.628543 1.30262,1.056683 0.35526,0.437248 0.62855,0.929151 0.82896,1.484822 0.19122,0.555669 0.2915,1.111338 0.2915,1.676117 0,0.910932 -0.22784,1.758102 -0.69233,2.523286 -0.45546,0.765184 -1.09312,1.329961 -1.90383,1.685226 1.02934,0.300608 1.85829,0.874496 2.4595,1.721664 0.60123,0.84717 0.90183,1.803649 0.90183,2.869441"
     id="path4786" />
  <path
     style="fill:#000000;fill-opacity:1;fill-rule:nonzero;stroke:none;stroke-width:2.33199"
     d="m 245.81541,17.052675 v 1.175104 H 233.74555 V 0.109312 h 11.84212 v 1.165995 h -10.5395 v 7.123499 h 9.20954 v 1.120448 h -9.20954 v 7.533421 z m 0,0"
     id="path4788" />
  <path
     style="fill:#000000;fill-opacity:1;fill-rule:nonzero;stroke:none;stroke-width:2.33199"
     d="m 252.01886,10.184235 h 6.34921 c 0.583,0 1.11133,-0.127536 1.58503,-0.382591 0.47368,-0.255061 0.88359,-0.592108 1.22975,-1.002028 0.33705,-0.419028 0.59212,-0.901824 0.77429,-1.430165 0.18213,-0.537451 0.26417,-1.084011 0.26417,-1.648789 0,-0.582997 -0.10027,-1.138666 -0.30971,-1.676117 -0.21851,-0.537452 -0.51012,-1.002028 -0.8745,-1.411948 -0.36437,-0.409919 -0.7925,-0.737855 -1.27529,-0.983808 -0.48282,-0.245953 -1.01115,-0.373482 -1.56682,-0.373482 h -6.17613 z m -1.30263,8.043544 V 0.100201 h 7.5243 c 0.7743,0 1.47571,0.163962 2.12249,0.491905 0.64675,0.318827 1.20242,0.746964 1.667,1.284416 0.4737,0.537451 0.83807,1.138666 1.10224,1.812758 0.26416,0.674092 0.3917,1.348182 0.3917,2.031382 0,0.664981 -0.10027,1.302634 -0.30062,1.922071 -0.20941,0.628543 -0.49191,1.184212 -0.87449,1.676117 -0.36438,0.491903 -0.81984,0.901823 -1.34817,1.22065 -0.52836,0.327936 -1.10224,0.537451 -1.73078,0.637652 l 4.50911,7.050627 h -1.50304 l -4.39069,-6.841111 h -5.86642 v 6.841111 z m 0,0"
     id="path4790" />
  <path
     style="fill:#000000;fill-opacity:1;fill-rule:nonzero;stroke:none;stroke-width:2.33199"
     d="m 275.90354,17.152876 c 1.22975,0 2.2409,-0.227742 3.05162,-0.692307 0.80162,-0.455468 1.4484,-1.056685 1.91297,-1.812758 0.46458,-0.746967 0.80163,-1.594135 0.99292,-2.550614 0.20032,-0.947371 0.2915,-1.912962 0.2915,-2.87855 V 0.109312 h 1.30262 v 9.109335 c 0,1.202432 -0.12756,2.359318 -0.3917,3.470656 -0.26417,1.102229 -0.6923,2.076928 -1.29351,2.914987 -0.59211,0.847168 -1.3664,1.512151 -2.32289,2.004054 -0.94737,0.501014 -2.12246,0.737856 -3.5162,0.737856 -1.44838,0 -2.65994,-0.255062 -3.62552,-0.774293 -0.96559,-0.519232 -1.74899,-1.202433 -2.33199,-2.06782 -0.59209,-0.856276 -1.00203,-1.830976 -1.24797,-2.924096 -0.25507,-1.084011 -0.37349,-2.20446 -0.37349,-3.361344 V 0.109312 h 1.30263 v 9.109335 c 0,1.002026 0.0912,1.976725 0.2915,2.933205 0.19122,0.947371 0.53745,1.794538 1.02024,2.541505 0.48279,0.737855 1.12957,1.329964 1.93119,1.785429 0.79251,0.446357 1.79454,0.67409 3.00608,0.67409"
     id="path4792" />
  <path
     style="fill:#000000;fill-opacity:1;fill-rule:nonzero;stroke:none;stroke-width:2.33199"
     d="M 289.27605,18.227779 V 0.100201 h 11.78747 v 1.184215 h -10.48484 v 7.196373 h 8.89983 v 1.120449 h -8.89983 v 8.626541 z m 0,0"
     id="path4794" />
  <path
     style="fill:#000000;fill-opacity:1;fill-rule:nonzero;stroke:none;stroke-width:2.33199"
     d="M 305.78216,18.227779 V 0.100201 h 1.30262 v 16.952474 h 10.8219 v 1.175104 z m 0,0"
     id="path4796" />
  <path
     style="fill:#000000;fill-opacity:1;fill-rule:nonzero;stroke:none;stroke-width:2.33199"
     d="m 321.96945,0.109312 h 1.29351 v 18.118467 h -1.29351 z m 0,0"
     id="path4798" />
  <path
     style="fill:#000000;fill-opacity:1;fill-rule:nonzero;stroke:none;stroke-width:2.33199"
     d="m 328.11826,9.03646 c 0,-1.09312 0.19122,-2.177131 0.57388,-3.252034 0.38258,-1.084009 0.93825,-2.0496 1.667,-2.896767 C 331.097,2.031382 331.98971,1.33907 333.0555,0.81073 334.12129,0.273279 335.33285,0 336.69014,0 c 1.62146,0 2.99696,0.373482 4.13562,1.111338 1.13869,0.746966 1.98585,1.685226 2.55061,2.842112 l -1.07488,0.619435 c -0.31883,-0.628544 -0.69232,-1.156884 -1.12957,-1.585023 -0.43725,-0.428139 -0.90183,-0.774295 -1.40283,-1.029354 -0.50101,-0.264173 -1.02936,-0.455468 -1.57591,-0.573889 -0.53746,-0.127537 -1.07491,-0.182198 -1.60325,-0.182198 -1.1569,0 -2.17714,0.236841 -3.06073,0.701418 -0.89271,0.464576 -1.63969,1.074902 -2.25002,1.821867 -0.61031,0.756075 -1.07489,1.594134 -1.39372,2.541505 -0.30971,0.947371 -0.46458,1.894741 -0.46458,2.842112 0,1.074901 0.18213,2.095146 0.55567,3.069846 0.37349,0.965588 0.88361,1.821867 1.53037,2.559722 0.64675,0.737856 1.41195,1.329964 2.29556,1.776321 0.89271,0.437248 1.84008,0.664981 2.86033,0.664981 0.54655,0 1.11133,-0.07288 1.68521,-0.209506 0.583,-0.127537 1.12957,-0.346156 1.65791,-0.637655 0.52833,-0.28239 1.02024,-0.655872 1.48482,-1.111337 0.45546,-0.446359 0.83807,-0.9747 1.14778,-1.594135 l 1.12045,0.537449 c -0.30061,0.683201 -0.71965,1.284418 -1.24798,1.812759 -0.52834,0.528342 -1.11134,0.974699 -1.75811,1.329964 -0.64676,0.355262 -1.33906,0.619435 -2.05871,0.801621 -0.71963,0.182199 -1.43016,0.26417 -2.13158,0.26417 -1.23887,0 -2.37753,-0.26417 -3.40689,-0.81073 -1.02934,-0.54656 -1.92208,-1.257089 -2.66904,-2.131585 -0.74696,-0.874497 -1.32995,-1.876522 -1.74899,-2.987862 -0.40992,-1.111338 -0.61942,-2.250004 -0.61942,-3.40689"
     id="path4800" />
  <path
     style="fill:#000000;fill-opacity:1;fill-rule:nonzero;stroke:none;stroke-width:2.33199"
     d="m 362.36024,0.109312 v 18.118467 h -1.30263 V 9.546583 H 349.6345 v 8.681196 h -1.31174 V 0.109312 h 1.31174 v 8.262167 h 11.42311 V 0.109312 Z m 0,0"
     id="path4802" />
  <path
     style="fill:#000000;fill-opacity:1;fill-rule:nonzero;stroke:none;stroke-width:2.33199"
     d="m 380.50603,17.052675 v 1.175104 H 368.43617 V 0.109312 h 11.84212 v 1.165995 h -10.5395 v 7.123499 h 9.20955 v 1.120448 h -9.20955 v 7.533421 z m 0,0"
     id="path4804" />
  <path
     style="fill:#000000;fill-opacity:1;fill-rule:nonzero;stroke:none;stroke-width:2.33199"
     d="m 229.53703,36.501106 v 18.118467 h -1.30265 v -8.681198 h -11.43221 v 8.681198 h -1.30262 V 36.501106 h 1.30262 v 8.262165 h 11.43221 v -8.262165 z m 0,0"
     id="path4806" />
  <path
     style="fill:#000000;fill-opacity:1;fill-rule:nonzero;stroke:none;stroke-width:2.33199"
     d="m 235.6585,45.555784 c 0,1.038463 0.17304,2.040491 0.52834,2.99697 0.34616,0.965591 0.83807,1.812759 1.4757,2.559723 0.63766,0.737858 1.40286,1.329964 2.28645,1.767212 0.88361,0.446357 1.8492,0.664981 2.90589,0.664981 1.09312,0 2.07692,-0.227742 2.95142,-0.683201 0.87449,-0.464574 1.62145,-1.0749 2.2409,-1.830976 0.61942,-0.756073 1.10221,-1.612351 1.44837,-2.559722 0.33705,-0.95648 0.51013,-1.92207 0.51013,-2.914987 0,-1.038463 -0.18213,-2.040491 -0.53746,-2.996971 -0.35525,-0.95648 -0.85626,-1.812758 -1.49392,-2.550614 -0.63766,-0.737855 -1.39373,-1.329964 -2.25911,-1.776321 -0.8654,-0.437248 -1.82187,-0.664981 -2.86033,-0.664981 -1.08402,0 -2.07694,0.236842 -2.96055,0.69231 -0.88359,0.464574 -1.63967,1.065792 -2.26821,1.821867 -0.62854,0.756073 -1.11133,1.612352 -1.4575,2.568831 -0.33704,0.947371 -0.51012,1.922071 -0.51012,2.905879 m 7.16905,9.191318 c -1.2571,0 -2.40486,-0.26417 -3.44334,-0.792513 -1.03846,-0.52834 -1.93117,-1.220649 -2.67813,-2.067817 -0.74698,-0.84717 -1.32998,-1.830976 -1.73078,-2.933207 -0.40992,-1.111338 -0.61945,-2.240895 -0.61945,-3.397781 0,-1.202433 0.21851,-2.359319 0.65587,-3.470656 0.42816,-1.102232 1.02937,-2.086037 1.78545,-2.933207 0.75607,-0.847168 1.6579,-1.530369 2.68724,-2.031383 1.03848,-0.501011 2.16803,-0.746964 3.37047,-0.746964 1.25708,0 2.41396,0.26417 3.46154,0.801622 1.04757,0.537451 1.94028,1.238869 2.67815,2.104256 0.73784,0.865388 1.31174,1.849194 1.72166,2.951425 0.40992,1.09312 0.61033,2.204458 0.61033,3.324907 0,1.229761 -0.21851,2.395755 -0.64678,3.497984 -0.43725,1.102229 -1.02934,2.076929 -1.78542,2.924096 -0.75607,0.838059 -1.6579,1.512151 -2.69636,2.013165 -1.03846,0.501012 -2.15891,0.756073 -3.37045,0.756073"
     id="path4808" />
  <path
     style="fill:#000000;fill-opacity:1;fill-rule:nonzero;stroke:none;stroke-width:2.33199"
     d="m 254.92475,45.428252 c 0,-1.084009 0.19122,-2.168021 0.57388,-3.252032 0.38258,-1.084009 0.93825,-2.040491 1.67612,-2.896768 0.72874,-0.847169 1.62145,-1.539477 2.68724,-2.076928 1.06581,-0.537451 2.27735,-0.810732 3.64373,-0.810732 1.61237,0 2.98787,0.373484 4.12655,1.11134 1.13867,0.737855 1.99493,1.694337 2.55971,2.851221 l -1.07491,0.610326 c -0.32792,-0.628544 -0.70141,-1.156886 -1.13866,-1.585026 -0.43725,-0.419028 -0.90183,-0.765181 -1.40283,-1.029354 -0.50101,-0.26417 -1.02025,-0.455465 -1.56679,-0.573889 -0.54658,-0.118418 -1.08403,-0.182175 -1.61237,-0.182175 -1.15687,0 -2.17712,0.236842 -3.06073,0.701419 -0.88362,0.473685 -1.63058,1.0749 -2.2409,1.830975 -0.61943,0.746967 -1.08401,1.594135 -1.39372,2.532394 -0.31883,0.947371 -0.4737,1.894742 -0.4737,2.851224 0,1.065792 0.19123,2.086037 0.56479,3.060736 0.37347,0.965589 0.88359,1.821867 1.53037,2.559723 0.64675,0.746967 1.41195,1.339073 2.29554,1.776321 0.88361,0.446357 1.8401,0.664981 2.86035,0.664981 0.54655,0 1.10221,-0.07287 1.68521,-0.209506 0.5739,-0.127537 1.12957,-0.346154 1.6579,-0.637652 0.52834,-0.28239 1.02025,-0.655873 1.47571,-1.102232 0.46458,-0.455465 0.84717,-0.983806 1.14778,-1.594132 l 1.12955,0.528341 c -0.30971,0.6832 -0.72875,1.284415 -1.25708,1.812758 -0.52834,0.528343 -1.11134,0.974699 -1.75809,1.329964 -0.64678,0.355262 -1.32998,0.628544 -2.05873,0.801621 -0.71963,0.182176 -1.43016,0.264171 -2.13158,0.264171 -1.23887,0 -2.36841,-0.264171 -3.40689,-0.810733 -1.02025,-0.546558 -1.91296,-1.257087 -2.65992,-2.131583 -0.74696,-0.874496 -1.32996,-1.867413 -1.74899,-2.987862 -0.41904,-1.111338 -0.62854,-2.250006 -0.62854,-3.406892"
     id="path4810" />
  <path
     style="fill:#000000;fill-opacity:1;fill-rule:nonzero;stroke:none;stroke-width:2.33199"
     d="m 289.17585,36.501106 v 18.118467 h -1.30265 v -8.681198 h -11.43221 v 8.681198 h -1.30262 V 36.501106 h 1.30262 v 8.262165 h 11.43221 v -8.262165 z m 0,0"
     id="path4812" />
  <path
     style="fill:#000000;fill-opacity:1;fill-rule:nonzero;stroke:none;stroke-width:2.33199"
     d="m 305.78216,39.507185 c -1.166,-1.302635 -2.833,-1.958507 -4.97369,-1.958507 -1.76721,0 -3.06074,0.337047 -3.86236,1.002028 -0.81074,0.674089 -1.21154,1.585023 -1.21154,2.723689 0,0.573889 0.10027,1.056685 0.30059,1.439276 0.20965,0.382591 0.52836,0.710529 0.95649,0.983808 0.43725,0.273279 0.9838,0.501014 1.64879,0.683201 0.66499,0.191293 1.46661,0.382591 2.39574,0.592106 0.97471,0.200411 1.85832,0.42814 2.64173,0.67409 0.7925,0.245953 1.46659,0.555671 2.02225,0.929153 0.54658,0.373482 0.97471,0.838059 1.27532,1.384619 0.30062,0.537451 0.44637,1.211541 0.44637,2.013163 0,0.801621 -0.15485,1.493931 -0.4737,2.095148 -0.31883,0.592106 -0.75608,1.09312 -1.32996,1.493931 -0.56478,0.391699 -1.24798,0.692309 -2.04049,0.901822 -0.79252,0.200411 -1.66702,0.30061 -2.6417,0.30061 -2.8239,0 -5.21055,-0.892716 -7.16905,-2.696363 l 0.6923,-1.047574 c 0.7652,0.801621 1.69433,1.430165 2.80569,1.894741 1.10221,0.473686 2.3502,0.71053 3.7257,0.71053 1.57591,0 2.81478,-0.291499 3.70751,-0.874496 0.89271,-0.573889 1.33908,-1.448385 1.33908,-2.623489 0,-0.601217 -0.11847,-1.102231 -0.35528,-1.521259 -0.23684,-0.419031 -0.59209,-0.774296 -1.05667,-1.084012 -0.46458,-0.309716 -1.05669,-0.573889 -1.77632,-0.792513 -0.71054,-0.218624 -1.54858,-0.437248 -2.49596,-0.637652 -0.9656,-0.200411 -1.83098,-0.419031 -2.56885,-0.646763 -0.73784,-0.236844 -1.35728,-0.519232 -1.85829,-0.874496 -0.50103,-0.346154 -0.88361,-0.765185 -1.13866,-1.266199 -0.25507,-0.491903 -0.38261,-1.111337 -0.38261,-1.858304 0,-0.81073 0.15484,-1.539477 0.4737,-2.168021 0.30971,-0.628545 0.75607,-1.156886 1.31174,-1.594134 0.56478,-0.437248 1.22975,-0.765184 2.01316,-0.983808 0.7925,-0.218624 1.64879,-0.327936 2.60528,-0.327936 1.17509,0 2.22266,0.17308 3.1427,0.519232 0.92007,0.346155 1.74899,0.883604 2.49598,1.594134 z m 0,0"
     id="path4814" />
  <path
     style="fill:#000000;fill-opacity:1;fill-rule:nonzero;stroke:none;stroke-width:2.33199"
     d="m 310.7923,45.428252 c 0,-1.084009 0.19122,-2.168021 0.57388,-3.252032 0.38258,-1.084009 0.93827,-2.040491 1.66702,-2.896768 0.72875,-0.847169 1.63055,-1.539477 2.69636,-2.076928 1.05667,-0.537451 2.26821,-0.810732 3.63462,-0.810732 1.61236,0 2.99698,0.373484 4.13564,1.11134 1.13867,0.737855 1.98583,1.694337 2.55062,2.851221 l -1.07491,0.610326 c -0.31883,-0.628544 -0.70142,-1.156886 -1.13867,-1.585026 -0.42815,-0.419028 -0.90182,-0.765181 -1.39373,-1.029354 -0.51013,-0.26417 -1.02934,-0.455465 -1.57591,-0.573889 -0.54655,-0.118418 -1.07491,-0.182175 -1.60325,-0.182175 -1.15687,0 -2.17712,0.236842 -3.06073,0.701419 -0.88362,0.473685 -1.63967,1.0749 -2.25,1.830975 -0.61033,0.746967 -1.07491,1.594135 -1.39374,2.532394 -0.30971,0.947371 -0.46458,1.894742 -0.46458,2.851224 0,1.065792 0.18213,2.086037 0.55567,3.060736 0.37349,0.965589 0.88361,1.821867 1.53037,2.559723 0.64678,0.746967 1.41195,1.339073 2.29556,1.776321 0.88359,0.446357 1.84008,0.664981 2.86033,0.664981 0.54657,0 1.10224,-0.07287 1.68523,-0.209506 0.57388,-0.127537 1.12955,-0.346154 1.65788,-0.637652 0.52836,-0.28239 1.02025,-0.655873 1.48483,-1.102232 0.45548,-0.455465 0.83807,-0.983806 1.14778,-1.594132 l 1.12045,0.528341 c -0.30971,0.6832 -0.71963,1.284415 -1.24799,1.812758 -0.52833,0.528343 -1.12045,0.974699 -1.7672,1.329964 -0.64675,0.355262 -1.32996,0.628544 -2.04961,0.801621 -0.71963,0.182176 -1.43926,0.264171 -2.13158,0.264171 -1.24796,0 -2.37753,-0.264171 -3.4069,-0.810733 -1.02934,-0.546558 -1.92204,-1.257087 -2.66903,-2.131583 -0.74696,-0.874496 -1.32995,-1.867413 -1.74899,-2.987862 -0.41901,-1.111338 -0.61942,-2.250006 -0.61942,-3.406892"
     id="path4816" />
  <path
     style="fill:#000000;fill-opacity:1;fill-rule:nonzero;stroke:none;stroke-width:2.33199"
     d="m 345.03428,36.501106 v 18.118467 h -1.30263 v -8.681198 h -11.43223 v 8.681198 H 330.9968 V 36.501106 h 1.30262 v 8.262165 h 11.43223 v -8.262165 z m 0,0"
     id="path4818" />
  <path
     style="fill:#000000;fill-opacity:1;fill-rule:nonzero;stroke:none;stroke-width:2.33199"
     d="m 358.37946,53.54467 c 1.22975,0 2.24091,-0.227742 3.05162,-0.69231 0.81074,-0.455465 1.4484,-1.056682 1.91296,-1.812758 0.46457,-0.746964 0.80162,-1.594132 0.99293,-2.550614 0.20032,-0.94737 0.3006,-1.912959 0.3006,-2.878547 v -9.109335 h 1.29353 v 9.109335 c 0,1.20243 -0.12756,2.359316 -0.39171,3.470656 -0.26416,1.102229 -0.69229,2.076928 -1.28441,2.914987 -0.60121,0.847168 -1.3755,1.512149 -2.32287,2.013163 -0.95649,0.491905 -2.1316,0.737855 -3.52532,0.737855 -1.44839,0 -2.65082,-0.26417 -3.62552,-0.783402 -0.96558,-0.519233 -1.74899,-1.202432 -2.33199,-2.067819 -0.59211,-0.856279 -1.00203,-1.830976 -1.24798,-2.914987 -0.24596,-1.093121 -0.37347,-2.213569 -0.37347,-3.370453 v -9.109335 h 1.30262 v 9.109335 c 0,1.002026 0.10028,1.976725 0.2915,2.933205 0.20032,0.956479 0.53746,1.794538 1.02025,2.541505 0.48279,0.737855 1.12957,1.33907 1.92207,1.785429 0.81074,0.446357 1.81275,0.67409 3.01519,0.67409"
     id="path4820" />
  <path
     style="fill:#000000;fill-opacity:1;fill-rule:nonzero;stroke:none;stroke-width:2.33199"
     d="M 371.75196,54.619573 V 36.501106 h 1.30264 v 16.943361 h 10.82188 v 1.175106 z m 0,0"
     id="path4822" />
  <path
     style="fill:#000000;fill-opacity:1;fill-rule:nonzero;stroke:none;stroke-width:2.33199"
     d="m 400,53.444467 v 1.175106 H 387.93013 V 36.501106 h 11.84215 v 1.175104 h -10.5395 v 7.11439 h 9.20954 v 1.120448 h -9.20954 v 7.533419 z m 0,0"
     id="path4824" />
  <path
     style="fill:#000000;fill-opacity:1;fill-rule:nonzero;stroke:none;stroke-width:2.33199"
     d="m 229.53703,72.892896 v 18.11847 h -1.30265 v -8.6812 h -11.43221 v 8.6812 h -1.30262 v -18.11847 h 1.30262 v 8.27128 h 11.43221 v -8.27128 z m 0,0"
     id="path4826" />
  <path
     style="fill:#000000;fill-opacity:1;fill-rule:nonzero;stroke:none;stroke-width:2.33199"
     d="m 245.81541,83.969846 -3.95347,-9.50103 -4.03541,9.50103 z m -4.51823,-11.07695 h 1.12045 l 7.66094,18.11847 h -1.3755 l -2.5324,-5.97572 h -8.64476 l -2.5324,5.97572 h -1.40283 z m 0,0"
     id="path4828" />
  <path
     style="fill:#000000;fill-opacity:1;fill-rule:nonzero;stroke:none;stroke-width:2.33199"
     d="m 270.5928,91.011366 v -15.66806 l -7.14171,12.22473 h -0.81986 l -7.14172,-12.22473 v 15.66806 h -1.30263 v -18.11847 h 1.30263 l 7.55166,12.96259 7.55163,-12.96259 h 1.30263 v 18.11847 z m 0,0"
     id="path4830" />
  <path
     style="fill:#000000;fill-opacity:1;fill-rule:nonzero;stroke:none;stroke-width:2.33199"
     d="m 290.04123,86.137876 c 0,-0.47369 -0.0821,-0.93827 -0.25505,-1.39373 -0.17304,-0.44636 -0.40994,-0.84717 -0.71054,-1.20244 -0.30971,-0.34615 -0.67408,-0.61943 -1.09312,-0.82894 -0.40991,-0.20042 -0.85628,-0.30061 -1.32995,-0.30061 h -7.35125 v 7.4241 h 7.16905 c 0.51012,0 0.98382,-0.1002 1.41195,-0.30971 0.43724,-0.20041 0.81074,-0.47369 1.12954,-0.82895 0.30974,-0.34616 0.56479,-0.73786 0.74699,-1.18421 0.19122,-0.43725 0.28238,-0.90183 0.28238,-1.37551 m -10.73991,-12.06987 v 7.24192 h 6.63159 c 0.49191,0 0.94737,-0.10021 1.3482,-0.30061 0.40991,-0.20951 0.76517,-0.47369 1.06579,-0.80162 0.29149,-0.33705 0.52833,-0.71964 0.70141,-1.166 0.16394,-0.44635 0.25505,-0.89271 0.25505,-1.34818 0,-0.50101 -0.0819,-0.95648 -0.24593,-1.39373 -0.16394,-0.43724 -0.38261,-0.81984 -0.66499,-1.14777 -0.27329,-0.33705 -0.61033,-0.60122 -1.00203,-0.79252 -0.39171,-0.19129 -0.82896,-0.29149 -1.30263,-0.29149 z m 12.04253,12.25205 c 0,0.65587 -0.12756,1.27531 -0.38258,1.8492 -0.25505,0.56478 -0.60121,1.06579 -1.04758,1.48482 -0.43725,0.42814 -0.96558,0.75607 -1.5577,1.00203 -0.59209,0.23684 -1.22063,0.35526 -1.88562,0.35526 h -8.47168 v -18.11847 h 8.44435 c 0.62854,0 1.20244,0.13663 1.71256,0.40992 0.50101,0.27328 0.93826,0.61944 1.30263,1.05668 0.35525,0.43725 0.62854,0.92916 0.82895,1.47572 0.19122,0.55567 0.2915,1.11134 0.2915,1.67611 0,0.92005 -0.22784,1.75811 -0.69232,2.52329 -0.45546,0.76518 -1.09312,1.32996 -1.91296,1.68523 1.03846,0.30972 1.85832,0.8836 2.45953,1.72166 0.61033,0.84717 0.91092,1.80365 0.91092,2.87855"
     id="path4832" />
  <path
     style="fill:#000000;fill-opacity:1;fill-rule:nonzero;stroke:none;stroke-width:2.33199"
     d="m 303.51392,89.936466 c 1.22978,0 2.24091,-0.22774 3.05165,-0.6832 0.81071,-0.46458 1.44837,-1.06579 1.91295,-1.81276 0.46458,-0.74697 0.80162,-1.60324 0.99291,-2.55061 0.20032,-0.95648 0.2915,-1.92207 0.2915,-2.88766 v -9.10934 h 1.30265 v 9.10934 c 0,1.21154 -0.12756,2.36842 -0.3917,3.47065 -0.26417,1.10223 -0.69232,2.07693 -1.29353,2.9241 -0.59212,0.83806 -1.36641,1.51215 -2.31378,2.00405 -0.95647,0.49191 -2.13158,0.73786 -3.52532,0.73786 -1.44837,0 -2.65081,-0.25506 -3.62549,-0.7834 -0.96561,-0.51012 -1.749,-1.20244 -2.33199,-2.05871 -0.59212,-0.86539 -1.00204,-1.84009 -1.24799,-2.9241 -0.24596,-1.09312 -0.37349,-2.21357 -0.37349,-3.37045 v -9.10934 h 1.30265 v 9.10934 c 0,1.00202 0.10027,1.98583 0.2915,2.9332 0.19122,0.95648 0.53745,1.80365 1.02024,2.54151 0.48279,0.73785 1.12955,1.32996 1.92207,1.78543 0.80163,0.45546 1.81275,0.67409 3.01517,0.67409"
     id="path4834" />
  <path
     style="fill:#000000;fill-opacity:1;fill-rule:nonzero;stroke:none;stroke-width:2.33199"
     d="m 318.18907,82.967826 h 6.35833 c 0.57388,0 1.10221,-0.12754 1.57591,-0.3826 0.47367,-0.25506 0.89271,-0.58299 1.22975,-1.00202 0.33704,-0.41903 0.59212,-0.89272 0.77429,-1.43017 0.18213,-0.53745 0.27329,-1.08401 0.27329,-1.64879 0,-0.57389 -0.10937,-1.13866 -0.31883,-1.66701 -0.21851,-0.53745 -0.51012,-1.01113 -0.8745,-1.42105 -0.36437,-0.40992 -0.7925,-0.73786 -1.27529,-0.98381 -0.48282,-0.24595 -1.00204,-0.36437 -1.56682,-0.36437 h -6.17613 z m -1.30263,8.04354 v -18.11847 h 7.53342 c 0.76517,0 1.46659,0.16396 2.11337,0.4828 0.64675,0.32793 1.20242,0.75607 1.67612,1.29352 0.46457,0.52834 0.82895,1.12956 1.09312,1.80365 0.26416,0.67409 0.40079,1.34818 0.40079,2.03138 0,0.66498 -0.10937,1.30264 -0.30971,1.93118 -0.20941,0.61944 -0.49191,1.17511 -0.86537,1.66701 -0.3735,0.4919 -0.82896,0.90182 -1.35729,1.22976 -0.52836,0.31883 -1.10224,0.52834 -1.73078,0.63765 l 4.51823,7.04152 h -1.51216 l -4.39069,-6.84111 h -5.86642 v 6.84111 z m 0,0"
     id="path4836" />
  <path
     style="fill:#000000;fill-opacity:1;fill-rule:nonzero;stroke:none;stroke-width:2.33199"
     d="m 348.14968,88.178366 c -1.749,1.97672 -3.78949,2.96053 -6.10326,2.96053 -1.22066,0 -2.35932,-0.26417 -3.4069,-0.79251 -1.04755,-0.52834 -1.94029,-1.22065 -2.68725,-2.09515 -0.75607,-0.86539 -1.33907,-1.84919 -1.7672,-2.96053 -0.41904,-1.10223 -0.63766,-2.22268 -0.63766,-3.36135 0,-1.19332 0.20941,-2.3411 0.62854,-3.45243 0.41904,-1.10224 0.99292,-2.07694 1.7399,-2.93321 0.73784,-0.84717 1.61234,-1.52126 2.6417,-2.02227 1.01113,-0.51013 2.13158,-0.75608 3.34312,-0.75608 0.90182,0 1.71256,0.10021 2.43219,0.2915 0.71963,0.20041 1.36641,0.46458 1.94029,0.81984 0.56478,0.34616 1.06579,0.76518 1.48482,1.24798 0.40992,0.48279 0.7652,1.02025 1.0567,1.59413 l -1.07491,0.63766 c -0.61033,-1.19333 -1.42107,-2.04961 -2.44131,-2.58705 -1.01113,-0.53746 -2.1498,-0.80163 -3.42511,-0.80163 -1.07489,0 -2.04049,0.22775 -2.91499,0.6832 -0.86538,0.46458 -1.60324,1.0658 -2.21357,1.81276 -0.61943,0.74697 -1.084,1.60324 -1.40283,2.55061 -0.32793,0.95648 -0.49191,1.93118 -0.49191,2.93321 0,1.0749 0.19122,2.09515 0.56478,3.05163 0.37349,0.96559 0.89271,1.81276 1.54858,2.5415 0.64678,0.72875 1.42107,1.31175 2.30468,1.74899 0.88359,0.42814 1.84008,0.64677 2.86033,0.64677 1.10221,0 2.14979,-0.25506 3.15182,-0.76519 0.99292,-0.51012 1.94941,-1.32085 2.86945,-2.42308 v -3.49799 h -4.10832 v -1.04757 h 5.22877 v 8.80873 h -1.12045 z m 0,0"
     id="path4838" />
  <path
     style="fill:#000000;fill-opacity:1;fill-rule:nonzero;stroke:none;stroke-width:2.33199"
     d="m 10.39375,80.408096 c 0,0.40992 0.33704,0.74697 0.74696,0.74697 h 26.66304 c 14.81177,0 23.38365,-5.83908 23.38365,-16.23283 0,-9.874526 -8.57188,-15.722718 -23.38365,-15.722718 H 11.14071 c -0.40992,0 -0.74696,0.337045 -0.74696,0.756075 z m 0,-41.820953 c 0,0.40992 0.33704,0.746964 0.74696,0.746964 h 26.66304 c 12.20649,0 19.35733,-5.32896 19.35733,-14.811777 0,-9.218647 -7.15084,-14.420078 -19.35733,-14.420078 H 11.14071 c -0.40992,0 -0.74696,0.337045 -0.74696,0.746967 z M 38.32296,0.100201 c 18.31888,0 29.3594,8.444354 29.3594,22.7369 0,10.648814 -6.10326,18.309765 -16.76117,20.523334 13.11744,1.949396 20.7875,10.52128 20.7875,22.991961 0,15.44943 -12.2065,24.67719 -32.73895,24.67719 H 0.75608 C 0.33704,91.029586 0,90.692536 0,90.282616 V 0.847168 C 0,0.437248 0.33704,0.100201 0.75608,0.100201 Z m 0,0"
     id="path4840" />
  <path
     style="fill:#000000;fill-opacity:1;fill-rule:nonzero;stroke:none;stroke-width:2.33199"
     d="m 87.90508,91.029586 h -8.63564 c -0.39171,0 -0.71054,-0.31883 -0.71054,-0.71053 V 0.81073 c 0,-0.391702 0.31883,-0.710529 0.71054,-0.710529 h 8.63564 c 0.40082,0 0.71965,0.318827 0.71965,0.710529 v 89.508326 c 0,0.3917 -0.31883,0.71053 -0.71965,0.71053"
     id="path4842" />
  <path
     style="fill:#000000;fill-opacity:1;fill-rule:nonzero;stroke:none;stroke-width:2.33199"
     d="m 198.1827,91.029586 h -8.63566 c -0.3917,0 -0.71053,-0.31883 -0.71053,-0.71053 V 0.81073 c 0,-0.391702 0.31883,-0.710529 0.71053,-0.710529 h 8.63566 c 0.39168,0 0.71051,0.318827 0.71051,0.710529 v 89.508326 c 0,0.3917 -0.31883,0.71053 -0.71051,0.71053"
     id="path4844" />
  <g
     clip-path="url(#clip2)"
     clip-rule="nonzero"
     id="g4848"
     transform="matrix(2.3319898,0,0,2.3319898,-904.2017,-83.796773)">
    <path
       style="fill:url(#linear0);fill-rule:nonzero;stroke:none"
       d="m 408.94531,55.472656 38.1836,38.1875 38.1875,-38.1875 -38.1875,-38.1875 z m 0,0"
       id="path4846" />
  </g>
</svg>
