<?xml version="1.0" encoding="UTF-8"?>
<!-- Generator: Adobe Illustrator 26.0.3, SVG Export Plug-In . SVG Version: 6.00 Build 0)  -->
<svg version="1.1" id="Ebene_1" xmlns="http://www.w3.org/2000/svg" xmlns:xlink="http://www.w3.org/1999/xlink" x="0px" y="0px" viewBox="0 0 692 180" style="enable-background:new 0 0 692 180;" xml:space="preserve">
<style type="text/css">
	.st0{fill-rule:evenodd;clip-rule:evenodd;fill:#1C3661;}
	.st1{fill-rule:evenodd;clip-rule:evenodd;fill:#D2DDEA;}
	.st2{fill:#1C3661;}
	.st3{fill-rule:evenodd;clip-rule:evenodd;fill:#FFFFFF;}
	.st4{fill:#FFFFFF;stroke:#1C3661;stroke-width:2.5;stroke-miterlimit:10;}
</style>
<g id="HG">
	<path class="st0" d="M358,180l-177.6,0c20.3-58,20.4-122,0-180L360,0v180"/>
	<path class="st1" d="M180.4,0L0,0v180l180.4,0C200.8,122,200.9,58,180.4,0z"/>
</g>
<path id="HAMBURG" class="st2" d="M428.2,90V30.7h-6.7v25.7H397V30.7h-6.7V90h6.7V62h24.5v28H428.2z M468.6,90V61.3  c0-9.1-4.5-13.2-13.8-13.2c-7.3,0-14.5,3.2-14.7,11.4h6.5c0.6-4.9,3.5-6.5,8.3-6.5c8.2,0,7.7,6.5,7.7,12.6v0.9  c-1.4,0.3-2.7,0.3-4,0.3c-7.6,0-19.5,3.4-19.5,12.7c0,7,4,11.4,11,11.4c4.6,0,10.3-2.1,12.6-6.4h0.2V90H468.6z M462.8,71.4  c0,3.4-0.2,5.2-1.5,8.3c-1.7,3.7-5.4,6.4-9.5,6.4c-3.4,0-5.8-2.5-5.8-5.9c0-6.5,8.2-8.7,13.4-8.7H462.8z M532.2,90V60.8  c0-6.4-3.3-12.6-10.5-12.6c-5.8,0-9.9,4.1-11.6,9.4H510c-0.4-6.1-4.2-9.4-10.3-9.4c-6.7,0-9.8,4.6-11.4,10.4H488v-9.5h-5.8V90h5.8  V73.1c0-5.7,2.8-19.2,10.2-19.2c6.7,0,6,8.7,6,13.3V90h5.8V73.1c0-5.7,2.7-19.2,10.2-19.2c6.7,0,6,8.7,6,13.3V90H532.2z M576.6,70  c0-9.5-2.8-21.8-14.6-21.8c-5.1,0-9.5,2.8-11.1,7.7h-0.2V30.7h-5.8v42.5c0,10.2,3.8,17.8,15.3,17.8C572.6,90.9,576.6,80.7,576.6,70z   M569.9,69.8c0,6.4-1.7,16.3-9.9,16.3c-8,0-9.3-8.7-9.3-14.9c0-6.1,2-18.1,10.1-18.1C568.5,53,569.9,64.1,569.9,69.8z M616.3,90  V49.1h-5.8v16.9c0,6.5-3.4,19.2-11.5,19.2c-6.7,0-6-8.7-6-13.3V49.1h-5.8v29.2c0,6.5,3.3,12.6,10.5,12.6c7.1,0,10.8-4.1,12.7-10.4  h0.2V90H616.3z M650.1,54.4v-6.3c-6.5,0-11.1,2.9-13.7,8.9h-0.2v-7.9h-5.8V90h5.8V73.1C636.3,64.1,639.5,54.4,650.1,54.4z   M685.2,90.1v-41h-5.8v6.7h-0.2c-1.3-4.8-5.8-7.7-10.7-7.7c-11.2,0-14,12.8-14,21.7c0,9.2,2.6,20.2,13.8,20.2  c5.1,0,9.3-2.9,10.8-7.8h0.2v7.2c0,8.8-2.9,13.6-12.4,13.6c-3.6,0-7-0.9-10.2-2.4v5.9c3.8,0.8,7.1,1.4,11.1,1.4  C679.6,107.9,685.2,101.7,685.2,90.1z M679.4,68.8c0,5.8-2.3,16.3-9.8,16.3c-7.3,0-8.3-9.8-8.3-15.2c0-5.3,1-16.9,8.5-16.9  C677.1,53,679.4,63.1,679.4,68.8z"/>
<g id="HK">
	<path class="st3" d="M337.6,33.2c1.4-1.6,1.3-2.9-0.3-2.9h-7.9c-1.6,0-2.4-0.2-5,2.4l-22,23.8l-0.1-23.3c0-1.6-1.3-2.9-2.9-2.9   h-5.4c-1.6,0-2.9,1.3-2.9,2.9l0,53c0,1.6,1.3,2.9,2.9,2.9h5.4c1.6,0,2.9-1.3,2.9-2.9l0-13.9l9.8-10.6l15.1,24.4   c1,1.6,2.4,2.9,4,2.9h8.1c1.6,0,2.1-1.3,1.1-2.9l-20.8-32.7L337.6,33.2z"/>
	<path class="st3" d="M267.3,33.2c0-1.6,1.3-2.9,2.9-2.9h5.8c1.6,0,2.9,1.3,2.9,2.9l0,53c0,1.6-1.3,2.9-2.9,2.9h-5.8   c-1.6,0-2.9-1.3-2.9-2.9l0-21.8H244l0,21.8c0,1.6-1.3,2.9-2.9,2.9h-5.8c-1.6,0-2.9-1.3-2.9-2.9l0-53c0-1.6,1.3-2.9,2.9-2.9h5.8   c1.6,0,2.9,1.3,2.9,2.9l0,21.3h23.4L267.3,33.2z"/>
</g>
<path id="Kreis" class="st4" d="M152.2,90.4c0,33.7-27.3,61-61.2,61c-33.6,0-60.9-27.3-60.9-61c0-34,27.3-61.3,60.9-61.3  C124.9,29.1,152.2,56.4,152.2,90.4z"/>
<g id="Wellen">
	<g>
		<path class="st2" d="M111.5,142c-2.6-0.4-5.2-0.8-7-0.8c-1.7,0-4,0.3-6.3,0.7c-2.4,0.4-4.9,0.8-6.7,0.7c-1.7,0-3.5-0.4-5.5-0.7    c-2.1-0.4-4.3-0.8-6.5-0.8c-2.2,0-4.6,0.4-7,0.8c-2,0.3-3.8,0.6-5.1,0.6c-0.2,0-0.4,0-0.6,0c1.6,0.8,3.3,1.4,5,2    c0.4-0.1,0.8-0.1,1.2-0.2c2.3-0.4,4.6-0.8,6.6-0.8c1.9,0,4,0.4,6,0.7c2,0.3,4,0.7,5.9,0.7c2,0,4.6-0.4,7.1-0.8    c2.3-0.4,4.4-0.7,5.9-0.7c1.6,0,4.1,0.4,6.6,0.7c1.5-0.6,3.1-1.2,4.5-1.9C114.4,142.4,112.9,142.2,111.5,142z"/>
	</g>
	<g>
		<path class="st2" d="M128.3,128.8c-1.2,0-2.9,0.4-4.7,0.8c-1.9,0.5-4.2,1-5.7,1c-1.5,0-3.9-0.4-6.3-0.7c-2.6-0.4-5.2-0.8-7-0.8    c-1.7,0-4,0.3-6.3,0.7c-2.4,0.4-4.9,0.8-6.7,0.7c-1.7,0-3.5-0.4-5.5-0.7c-2.1-0.4-4.3-0.8-6.5-0.8c-2.2,0-4.6,0.4-7,0.8    c-2,0.3-3.8,0.6-5.1,0.6c-1.5,0-4.4-0.5-6.9-1c-2.4-0.4-4.5-0.8-5.7-0.8c-1.5,0-4.3,0.4-6.1,0.7c0.7,0.7,1.4,1.5,2.1,2.2    c1.5-0.2,3.1-0.4,4-0.4c0.9,0,3.1,0.4,5.2,0.8c2.7,0.5,5.6,1,7.3,1c1.5,0,3.5-0.3,5.5-0.7c2.3-0.4,4.6-0.8,6.6-0.8    c1.9,0,4,0.4,6,0.7c2,0.3,4,0.7,5.9,0.7c2,0,4.6-0.4,7.1-0.8c2.3-0.4,4.4-0.7,5.9-0.7c1.6,0,4.2,0.4,6.7,0.7    c2.6,0.4,5,0.7,6.6,0.7c1.9,0,4.2-0.5,6.3-1c1.7-0.4,3.2-0.8,4.2-0.8c0.8,0,2,0.1,3.2,0.3c0.7-0.7,1.5-1.5,2.2-2.2    C131.9,129.1,129.7,128.8,128.3,128.8z"/>
	</g>
	<g>
		<path class="st2" d="M123.6,135.7c-1.9,0.5-4.2,1-5.7,1c-1.5,0-3.9-0.4-6.3-0.7c-2.6-0.4-5.2-0.8-7-0.8c-1.7,0-4,0.3-6.3,0.7    c-2.4,0.4-4.9,0.8-6.7,0.7c-1.7,0-3.5-0.4-5.5-0.7c-2.1-0.4-4.3-0.8-6.5-0.8c-2.2,0-4.6,0.4-7,0.8c-2,0.3-3.8,0.6-5.1,0.6    c-1.5,0-4.4-0.5-6.9-1c-2.4-0.4-4.5-0.8-5.7-0.8c-0.2,0-0.3,0-0.5,0c1.3,1,2.6,2,3.9,2.9c0.6,0.1,1.2,0.2,1.8,0.3    c2.7,0.5,5.6,1,7.3,1c1.5,0,3.5-0.3,5.5-0.7c2.3-0.4,4.6-0.8,6.6-0.8c1.9,0,4,0.4,6,0.7c2,0.3,4,0.7,5.9,0.7c0.1,0,0.1,0,0.2,0    c2,0,4.5-0.4,6.9-0.8c2.3-0.4,4.4-0.7,5.9-0.7c1.6,0,4.2,0.4,6.7,0.7c2.6,0.4,5,0.7,6.6,0.7c1.5,0,3.4-0.4,5.2-0.8    c1.6-1.1,3.2-2.2,4.7-3.5C126.6,135,125.2,135.3,123.6,135.7z"/>
	</g>
</g>
<g id="Burg">
	<path class="st2" d="M109.3,112.4l-3.1-11.6H91H75.8l-3.1,11.6l-2,7.3H84h2.9H87v-8.5c0-2.2,1.8-4,4-4s4,1.8,4,4v8.5h0.1h6h10.1   L109.3,112.4z"/>
	<path class="st2" d="M106.2,95.4V84.8h-7.3v10.6h-4V85h1.8v-2.8h-1.2c0-2-1.4-3.7-3.2-4.1v-1.9h1.6v-1.7h-1.6v-1.5h-2v1.5h-1.5v1.7   h1.5V78c-1.9,0.4-3.3,2.1-3.3,4.2h-1.3V85h1.8v10.4h-4.1V84.8h-7.3v10.6h-2.5v3.5h35.4v-3.5H106.2z"/>
	<polygon class="st2" points="81.1,80.3 81.9,78.9 80.2,78.9 79.4,77.5 78.6,78.9 76.9,78.9 77.7,80.3 76.9,81.8 78.6,81.8    79.4,83.2 80.2,81.8 81.9,81.8  "/>
	<polygon class="st2" points="104.2,80.3 105,78.9 103.3,78.9 102.5,77.4 101.6,78.9 99.9,78.9 100.8,80.3 99.9,81.8 101.6,81.8    102.5,83.2 103.3,81.8 105,81.8  "/>
</g>
<g id="Personen">
	<path class="st2" d="M121.9,53.4c0.2,0,0.2,0,0.5,0l0.2-0.2c0.2,0,0.2-0.2,0.2-0.2c0.2,0,0.2,0,0.5,0c0.2,0,0.2,0,0.5,0   c0,0,0-0.2,0.2-0.2c0,0,0-0.2,0-0.5c0,0,0-0.2-0.2-0.2c0,0-0.2,0-0.2-0.2h-0.5c0,0-0.5-0.3-0.7-0.3c-1.8,0-0.7,0.8-0.7,1.8   C121.6,53.4,121.9,53.4,121.9,53.4z"/>
	<path class="st2" d="M61.2,53.4c0,0,0.1,0.2,0.2,0.2c0,0,0.2,0,0.5,0c0,0,0.1,0,0.1,0c0,0,0,0.1,0.1,0.2c0,0,0.6,0.3,1.1,0   c0,0,0.1,0,0.4,0c0,0,0,0,0.2,0c0,0,0,0.2,0.2,0c0,0,0-0.4,0-0.4c-0.2-0.2-0.4-0.5-0.4-0.5s-0.2-0.3-0.6-0.4c-0.2-0.1-0.7,0-0.9,0   c-0.2,0-0.8,0.3-1,0.5C61.2,52.9,61.4,53.2,61.2,53.4z"/>
	<path class="st2" d="M145.4,96.6c0-1.4-0.1-2.7-0.1-4.1c-0.2-0.5-0.2-1-0.5-1.5c-0.2-0.4-0.4-1-0.8-1.3c-0.2-0.3-0.5-0.5-0.6-0.6   c-0.2-0.2-1.5-1-1.5-1c0,0-0.5-0.5-0.5-0.7c-0.2-0.5-0.5-1-0.7-1.2c0,0,0-0.5-0.2-0.7c0-0.2-0.2-1-0.2-1.5c0-0.2-0.5-1.7-0.5-1.9   c-0.1-0.5-0.2-1.5-0.3-2.6c-0.1-0.7-0.2-1.4-0.5-2.1c-0.7-1.2-0.8-2.5-1-3c-0.8-1.5-1.8-2.7-2.5-4.1c-0.2-0.4-0.3-0.8-0.4-1.3   c-0.2-1.1-0.2-2.4-0.4-3.6c0-0.2-0.3-0.6-0.6-0.9c0,0,0,0,0-0.1c0-0.3-1.1-1.8-1.1-1.8c-0.2-0.2-0.4-0.4-0.6-0.6c0,0,0,0-0.1-0.1   c-0.2-0.2-2.1-0.9-2.6-1.1c-0.6,0.2-4.5-0.4-3.8-3.3c0.1-0.2,0.9-1.4,0.9-1.6c0,0,0.7-0.5,0.7-0.7c0,0,0.2-0.2,0.2-0.5   c0,0,0-0.7,0.2-1c0.3-0.6,0.1-1.1,0.3-1.2c0.2-0.2,0.9,0,0.9,0c0.8,0.1,1.4,0,2,0c0.5,0,1.6,0.3,1-0.8l0,0h0   c-0.1-0.1-0.2-0.3-0.3-0.6c-0.1-0.2-0.4-0.6-0.5-0.9c-0.4-0.8-0.9-1.4-1.3-2.1c-0.8-1-1.9-0.7-2.1-0.8c-0.2-0.2-0.9-0.6-1.2-0.7   c-0.7-0.3-1.5-0.6-2.3-1c-0.2-0.1-0.8-0.1-1.2-0.2c-0.3-0.1-0.9,0.2-1.1,0c-0.3-0.4-1.1-0.5-1.4-0.5c-0.5,0-1,0.2-1.2,0.4   c-0.4,0.2-1.1,2-1.2,1.9c-0.2,0-0.8,0.2-0.9,0.4c-0.1,0.2,0,1.6,0.2,1.8c0.8,0.4,0.6,1.4,0.2,2.3c0,0,0,0.1,0,0.2   c0,0.2,0.1,0.5,0.1,0.7c0,0.8,0.5,1.4,0.2,2.3c-0.1,0.3,0.1,1,0,1.5c0.2,1,1.1,1.6,0.3,2.2c-0.1,0.5-0.3,1.1-0.5,1.4   c-0.2,0.7-0.6,1.1-1.6,1.5c-0.6,0.2-1.4,0.6-2.2,0.8c-0.7,0.2-1.4,0.4-1.8,0.5c-0.1,0-0.1-0.3-0.2-0.5c0-0.1,0-0.2,0-0.2   c-0.8-2.3-1.7-2.6-2.8-4.2c0-0.5-1-1.3-1.5-1.3c-0.8,0-1.5,0.4-2,1c-0.1,0.1-0.2,0.2-0.3,0.4c-0.3,0.4-0.3,0.8,0.7,1.2   c0.2,0,0.5,0,0.8,0c0.2,0,0.5-0.1,0.7-0.1c0.2,0,0.6,0,0.6,0.2c0.2,0.2,0.6,0.5,0.9,1c0.2,0.5,0.7,1.2,1,1.9v0   c0.1,0.4,0.7,3.9-0.5,2.6c-0.3,0-1.4-1.6-2.1-2.7c-0.3-0.4-0.5-0.7-0.6-0.8c-0.2-0.2-1.3-2-1.3-2l-0.7-0.7   c-0.2-0.3-0.3-0.5-0.5-0.9c-1.8-1.8-1.5-2.2,0.2-4c0.5-1,0.8-1.5,1-2.1c0.2-0.5,0.2-1.1,0.2-2.2c0-0.6-2.2-5.4-3.3-4.3   c0,1.1-0.2,3.7-1,4.5c-0.3,0.7-0.4,1.3-0.4,2c0,0.2,0,0.5,0,0.8h-0.5c0,0-0.3-0.3-0.6-0.7h0c-0.6-0.8-1.5-2-1.2-2.3   c0.5-0.5-0.9-1.2-1.2-1.2c-3.2,0-1.9,3.9-0.5,2.9c0.2-0.1,0.6,0.2,1,0.6c0.6,0.7,1.2,1.8,1.2,2.1c0.9,0.4-0.1,0.1-0.3,0.1   c0,0-0.5,0-0.7-0.2c-0.2,0-0.7,0-1.2,0c-0.2,0-0.7,0-1.2,0c-1.2,0.3-2.5,0.3-3.8,0c-0.5-0.5-1.1,0.4-0.5,1c0.2,0.2,0.5,1,0.7,1.2   c0.4,0.8,1.4,1.7,2.3,2c0.5,0.5,1.5,0.7,2,0.7c1.4,0,3-1.3,4-1.3c0.2-0.2,0.5-0.2,0.7-0.2c0.2-0.2,0.5,0,0.7,0c0,0.2,0.5,0.7,0.7,1   c0.6,1.2,1.4,1.9,2,3c0,0,0.1,0.4,0.5,1c0.7,0.9,1.7,2.3,1.9,2.7c0.2,0.2,0.7,0.7,0.7,0.7c0.8,0.7,0.5,0.7,0.2,1   c-0.2,0-0.2,0-0.5,0c-1.4,0-4-2.7-4.3-3.3c-0.3-0.5-0.5-0.5,0.1-1.1c0,0,0-0.1,0.1-0.1c0.4-1.2,0.3-2.1-1.2-2.1   c-0.5,0.3-0.4,0.3-0.9,0.8c-0.2,0.2-0.3,0.9-0.4,1.3c0,0.2,0,0.4,0,0.4c0.1,0.2,0.3,1.1,1.2,1.6c0.5,0.7,1,1.5,1.1,1.6   c3.1,3.6,5.4,3.1,5.4,3.3c0.1,0,0.1,0,0.1,0.1c0,0.1,0,0.2,0,0.2c0,0.3-1.1,3-1.2,3.3c-0.2,0.7-1,3.5-1,3.8c0,0.5,0,1,0,1.2   c0,0.4,1.2,1.4,2.1,2c0.3,0.2,0.6,0.4,0.8,0.5c1,1,2.7,1.9,3.7,3c0.2,0.5,0.1,0.8,0.1,0.8l0.1,2c0,0.9,0,1.9,0.1,2.8   c0,0-1.2,0.2-1.5,0.2c-0.5,0-2.8,0.2-3.3,0.2c-0.3,0-1.6,0-2.3,0l-7.3,0.9h7.3v1.2c0.9,0,4.1,0,4.5,0c0.7,0,4.1-0.4,4.1-0.4   c1.4,1.4,4.2,3.9,6.3,6.2c1,1.1,2.1,2.2,2.6,3.1c0.2,0.2,0.7,1,1,1.2c0,2.8,1.9,3.6-0.1,5.7c-0.6,0.6-0.3,0.5-0.9,1.1   c-0.1,0-1.4,0.8-1.9,0.9c-0.2,0-0.7,0.2-0.8,0.2c-0.2,0.1-0.4,0.2-0.6,0.4c-0.2,0.2-0.2,0.5-0.2,0.7c0,0.2-0.3,0.5-0.2,1   c0.2,0.7,0.9,1.4,0.6,1.4c-4.3,0-7.8-0.2-12.1-0.5c0-0.1-3.3-0.2-7.9-0.1v3c5.1-0.1,8.8-0.4,8.6-0.8c4.6,0.2,8.4,0.3,13.1,0.3   c0,0,0.6,0.1,1,0.9c0.2,0.2,0.6,1.2,1.1,2.1c0.5,1.2,1.2,2.6,1.7,2.6c0.2,0.2,1.2,0.1,1.5-0.1c0.2,0,0.6,0,0.8-0.5   c0.2-0.4,0.1-1.3,0-2c-0.3-1-0.8-2.1-1-2.7h1.9c0,0-0.5,0.9-0.5,1.2c0.2,0.4-0.1,0.6,0.6,1.5c1.3,0.3,1.6,2,2.5,2.7   c0.5,0.6,1.4,1.3,1.9,1.5c0.8,0.2,1.3,0.2,1.5,0.2c0.5,0,1.4-0.1,1.7-0.3c0.7-0.4,1.2-0.5,0.5-1.2c0-0.2-1.1-1.4-1.3-1.8   c-0.3-0.2-0.6-0.6-0.8-0.9c-0.7-0.9-1-2.1-1.3-2.7c0.1-0.1,0.6,0,0.8,0c1.7,0.2,3.7,0.2,5.5,0.2c0.6,0,2.3,0.3,2.3-0.6   c0,0,0-0.2,0-0.2c0-0.4,0-0.9,0-1.4c0-3.3,2.8-5.7,2.8-8.7c0.2-0.5,0-1.5,0.2-1.8C145.6,100.6,145.4,98.5,145.4,96.6z M128.1,47.9   c0.5,0,1.9,2,1.9,2c0.5,1,1.1,1.2-0.5,0.8c-0.2,0-1.7-0.2-1.9-0.8c0,0-1.1,0.8-1.6,0.8c-0.2,0,0-0.6,0.1-0.9   C126.5,48.9,127,48.2,128.1,47.9z M119.6,47c0.1-0.3,0.2-0.3,0.5-0.5c0.2-0.1,1.2-0.5,1.5-0.5c0.2,0,0.5-0.2,1-0.2   c0.2,0,0.5,0,0.5,0s0.8,0,1.1,0.2c0.7,0.2,1.8,0.7,2.5,1.1c0,0-1.1,1.3-1.4,1.8c-0.4,0.6-0.5,1-0.7,1.4c-0.3-0.1-1.3-0.6-2.4-1.2   c-0.3-0.1-0.5-0.6-1-0.7c-0.3-0.1-0.5-0.3-0.7-0.5C120,47.4,119.4,47.4,119.6,47z M119.2,49.5c0,0,0.3,0,0.3,0.3   c0,0,0.5,0.2,0.7,0.2c0,0,0.7,0.5,1,0.5c0,0,0.8,0.1,1,0.2c0.1,0,0.2,0.1,0.4,0.2h0l0,0c0.3,0.1,0.7,0.3,0.8,0.3c0,0,0.2,0,0.5,0.2   l0.2,0.2c0.2,0,0.5,0,0.7,0.2h0.5l-0.2,0.5c0,0.2-0.2,1-0.2,1c0,0.2-0.2,0.7-0.2,1c0,0.2,0,0.5-0.2,0.7c-0.6,0.6-1.4,0.9-2,1.5   c-0.2,0.2-0.6,0.3-0.7,0.5c-0.1,0.2-0.4,0.1-0.7,0.2c-0.2,0.1-0.5,0-0.5,0l-0.2-0.2c0.2,0,0.3,0,0.5-0.2c0.2-0.2,0.5-0.5,0.7-0.5   l0.2-0.2c0-0.2,0-0.2,0-0.5h-0.2c-0.2,0-0.2,0-0.5,0c0,0-0.2,0-0.5,0c0,0,0-0.2,0.2-0.2l0.2-0.2c0-0.2,0-0.5-0.2-0.5   c0,0-0.2,0-0.5,0c0,0-0.2,0-0.2-0.2c0,0-0.2-0.2,0-0.5l0.2-0.7c0-0.2,0.1-0.4,0-0.7c-0.1-0.2,0-0.6-0.2-0.7   c-0.2-0.1-0.5-0.4-0.7-0.5c-0.1-0.1-0.1-0.2-0.2-0.3c0-0.1,0-0.2,0-0.2c0-0.2,0-0.7,0-0.7C119.1,49.8,119,49.5,119.2,49.5z    M112.2,65.3c0-0.9-0.7-1.1,0-1.8c1.3-0.6,3.7-1,5.1-1.9c0.2-0.1,0.2-0.3,0.4-0.4c0.2,0,0.4-0.7,0.8-1.1c0.2-0.2,0.5-1.6,1-1.6   c0.5,0,0.5,0.8,1.4,0.8c0.8,0,1.8-0.8,2.4-1c0.2,0,0.3,0.3,0.4,0.6c0,0,0.5,0.7,1,1.5c0.3,0.6,0.8,0.9,1.1,1.1   c0.1,0,0.2,0.1,0.2,0.1c0.5,0,1,0,1.2,0c0.5,0,0.8,0,1.5,0.2c0,0,1,0.5,1.2,0.7c0.5,0.2,1.2,1,1.5,1.2c0.2,0.2,0.6,0.7,0.6,1   c0.2,0.5,0.6,1.5,0.7,1.8c0,0.4,0,1.1,0.2,1.9c0.2,1.1,0.6,2.4,0.9,3c0.2,0.7,1.2,1.7,1.2,2c0.3,0.4,1,1.9,1.7,2.9   c0.3,0.5,0.5,1.4,0.7,2.6h0c0.2,1.2,0.5,2.8,0.9,4.6c0,0.2,0.2,1,0.2,1.2c0.2,0.5,1.3,2.8,1.3,3c0,0.3,0.4,0.6,0.3,1.6   c-0.1,0.2-0.2,0.4-0.3,0.7c-0.2,0.1-0.5,0-0.9-0.3c0,0,0-0.2,0-0.5c0-0.3,0-0.7-0.2-1c-0.5-0.8-0.9-1.6-1.3-1.9   c-0.1,0.1-0.6,1.2-0.9,1.2c-0.1,0-0.4-1.5-0.1-1.1c-0.2-0.1,0.6-1.5,0.3-2.7c-0.2,0-0.5-2-0.9-2.4c-0.3-0.6-0.7-1.1-1-1.8   c0-0.1-0.1-0.4-0.2-0.7c-0.2-0.5-0.4-1.2-0.6-1.4c-0.2-0.2-0.9-2-1.4-2.6c-0.8-1.6-2.6-5.2-3-6.5c0-0.1,0-0.2,0-0.2   c-0.1-0.4-0.2-0.8-0.8-0.6c-0.6,0.1-1.1,0.5-1.8,0.9c-0.6,0.3-1.2,0.8-2.2,1.1c-0.6,0.2-1.2,0.1-2,0c0,0-0.5,0-0.5,0.3   c0.2,0.2,0,0.5,0.2,0.7c0.7,0.2,2.2,0.5,2.9,0.5c0.8-0.2,0.2,0,0.8-0.1c0.3-0.1-0.2,2.3-1.2,4.6c-0.8,2.3-1.5,2.4-1.8,3.3   c-0.1,0.2-0.1,0.6-0.2,1.1c-0.3,1.4,2,0.7,2.2,0.7c0.5,0,2.3,1.4,2.3,1.4c0,0.5,1.9,1.4,3.2,1.9c0.2,0.3,0.3,0.6-0.1,0.7   c-1.9,0.6-3.5,1.8-5,1.9c-0.3-0.7-1.4-1.7-1.4-2.5c0.8-0.7,0.3-1.8-0.8-2.6c-1-0.7-2.3-0.7-2.2-2.4c0,0,0-0.1-0.1-0.2   c-0.2-0.7-1.3-2.1-1.3-1.9c-0.2-0.2-0.5-0.2-0.7-0.5c-0.5,0-1.2-0.3-1.2-0.9c0-0.2,0-0.7,0-1c0-0.5-0.5-1-0.7-1.2   c-0.5-0.2-0.7-0.5-1-0.5c-0.2-0.2-0.5-0.2-0.7-0.5c-0.2-0.2-0.8-0.7-0.8-1.2c-0.1-0.2-0.3-2.3,0.3-1.6c0.6-0.1,2.4,0.6,3,0.7   c0.8,0,1.5,0,2.3,0c0.2,0,0.5,0,0.5,0c0-0.5,0-0.4-0.2-0.7c0,0-0.7-0.2-1-0.2c-0.7,0-1.7,0.1-2.3-0.5c-0.1-0.1-0.3-0.3-0.5-0.4   c-0.3-0.2-0.6-0.4-1-0.6c-0.1,0-1.5-0.6-1.5-0.2c-0.3,0-0.5,0.2-1,0.2c-0.2,0-1.8-0.4-1.8-0.7c-0.2-0.2-0.2-0.5-0.2-0.7   C111.7,66,112.2,65.8,112.2,65.3z M138.6,96.6c-0.5,0.6-1.1,1.2-1.6,1.7c-0.2,0.2-0.8,0.7-1.3,1.3c-1.1,1.3-2.3,2.4-3.3,3.8   c0,0,0-1,0-1.3c0-0.9-0.2-1.8-0.2-2.8c0,0,0-0.5,0-0.7c0.2-0.2,1.2-1.6,1.4-1.8c0,0,0,0,0.1-0.1c0.2-0.2,0.7-0.6,0.9-0.8l0.5-0.7   c0.2-0.2,0.3-0.5,0.6-0.8c0-0.2,0-0.5,0-0.7c-0.2-0.2-0.5-0.2-0.7-0.2c-0.2,0-0.5-0.2-1-0.5c-0.7-0.2-2-0.7-2.3-1   c-0.5-0.2-1.2-0.7-1.5-1c-0.5-0.2-1-0.5-1.2-0.7c-0.1-0.1-0.3-0.4-0.4-0.5c-0.1,0-0.1-0.1-0.1-0.1c-0.2-0.2-0.5-0.6-0.6-0.8   c3.9-0.7,5.7-2.4,6.8-2.9c0.3,0.1,0.4,0.3,0.9,0.6c0.9,0.6,0.5,2.5,0.5,2.6c0.1,0.2,0.2,0.5,0.5,0.5c0.4,0.1,0.5,0.1,0.7,0.1   c0.4-0.2,0.9-2.1,1.2-0.6c0,0.2,0.2,0.4,0.3,0.6c0,0.1,0.1,0.4,0.1,0.5c0.3,0.6,0.5,2.1,1.4,1.4v0.2c0.2,0,0.2,2.2,0.2,2.5   c-0.2,0.2-0.2,0.7-0.5,1C139.4,95.7,139,96.2,138.6,96.6L138.6,96.6z M131.8,96.3c-0.1-0.2-0.2-0.2-0.2-0.4c-0.4-1.1-1.5-2.8-2-3.5   c0.2,0,3.6,1.6,3.3,2.5C132.8,95.1,132.2,95.8,131.8,96.3z M130.1,71.7c0.2,1.8,1.6,3.4,2.1,4.9c0.4,0.6,0.8,1.6,1.3,2.4   c0,0.1,0.1,0.2,0.1,0.3c0.2,0.3,0.8,1.2,0.8,1.7c0.4,0.4,2.4,2.8,1.5,3c-1.2-0.5-1.8-0.2-3-1.1c-0.5-0.2-1.3-0.7-1.7-1.1   c-1.5-0.9-3.4-1.9-4.2-2.6c0,0,0-0.1-0.1-0.1c-0.5-1.4,1.5-3.5,2-4.5c0.2-0.2,0.5-0.9,0.5-1.2c0-0.1,0.5-1.6,0.5-1.6   S129.9,71.7,130.1,71.7z M124.7,87.6c-0.3,0.1-2.3,0.5-2.6,0.3c0,0,0.1-1.6,0.1-1.8c0.2-0.2,0.2-0.2,0.5-0.2h0.5   C123.7,86.3,124,86.8,124.7,87.6z M114.9,76.5c0,0.2,0,0.2-0.2,0.2c-1.1-0.6-1.6-1.2-2.3-2c0.5-0.5,0.8-0.8,1.1-1.1   c0.2,1.2,0.3,1.4,0.6,2C114.2,75.7,114.7,76,114.9,76.5z M111.9,79.2c-1-0.6-1.9-1.2-2.9-1.8c-0.6-0.6-0.5-0.7-0.5-1.5   c0-1,0.3-3.4,0.7-4.3c0-0.2,0.2-1.2,0.5-1.5c0-0.2,0.2-0.5,0.2-0.7c0-0.1,0.6-0.8,0.6-0.5c-0.1,0.8,0.2,1.2,0.2,1.8   c0,0.4,0.7,1,1,1.2c0.2,0.2,0.5,0.5,0.7,0.5c0,0,0.2,0,0.2,0.2c0,0.2,0,0.5-0.2,0.7c0,0.4-2,1.6-2,1.7c0.1,0.1,0.5,0.2,0.8,0.4   c0.1,0,3.3,2,3.5,2.1c0.2,0.2,1.2,0.7,1.5,1c0,0.1,0,0.3,0.2,0.5c0.2,0.3,0.6,0.6,0.7,0.8c0.2,0.2,1.2,0.8,1.5,1   c0.3,0.1,0.4,0.2,0.7,0.2c0.2,0,0.5,0.2,0.7,0.2c0.1,0.2,0.2,0.5,0.5,0.7c0,0-0.3,0.6-0.1,1.3c0.1,0.7,1.3,0.9,0.6,0.9   c-0.2,0-1.2,0-1.8-0.2c-1.1,0-1.6-1.8-2.3-2.5c-0.5-0.2-0.7-0.1-1.2-0.3C114.6,80.7,113.3,79.9,111.9,79.2z M115,87   c-0.2-0.2-0.5-0.2-0.5-0.5c-0.1-0.5-0.1-2.3-0.2-2.5c0,0,0-0.5,0.2-0.5c0,0,0.5-0.2,0.7-0.2c0.2,0,0.5,0,0.7,0.2c0,0,0.2,0,0.5,0.2   l0.2,0.2c0,0.2,0.5,0.5,0.5,0.5s0.5,0.7,0.7,0.7c0.5,0.2,0.7,0.5,1,0.5c0.5,0.2,0.7,0.2,1,0.2c0.5,0,0.2,1,0,1.2   c0,0.2,0,0.2-0.2,0.5c-0.2,0-0.7,0-1,0c-0.5,0-0.7,0-1.2,0C117,87.3,115.5,87.6,115,87z M127.3,117.7L127.3,117.7   c0.3,1.3,0.2,1.5,0,1.4c-0.2,0-0.4,0.2-0.4,0.1l-0.1-0.1c-0.2,0-0.5-0.3-0.6-0.4c-0.3,0-0.2-0.2-0.3-0.3c0,0-0.2-0.3-0.3-0.6   c0-0.1,0-0.1,0-0.1c-0.1-0.3-0.3-0.9-0.6-1.4c-0.2-0.3-0.4-0.9-0.8-1.5c-0.6-1.1-0.4-1.6-1.3-2.1c-1.2-0.7-1.5-2.5-0.2-2.7   c0.1,0,1.2-0.1,1.5-0.1c0.2-0.2,0.8-0.5,1.1-0.7c0.5-0.2,1.2-1.7,1.2-1.5c0,0.2,0.3,1.5,0.3,1.8c0,0,0.3,0.9,0.3,0.9   c-0.2,0-1.2,1-1.2,1.3c0,0.2,0,0.8,0,1c0,0.7,0.3,1.2,0.3,2C126.1,114.6,127.1,116.9,127.3,117.7z M127,113.3l0-1.4l0.8-0.6   l0.8,0.7l0.6,1.3L127,113.3z M134,117.8c1.1,1.8,3,2.9,2.6,3.1c-0.4,0.2-2.2,0.2-2.3,0.2c-1.1-0.9-1.8-2-2.8-3.2   c-0.1-0.1-0.2-0.2-0.2-0.2c-0.3-0.4-0.3-0.2-0.8-0.8c-0.6-0.6-0.2-1.1,0-1.9c0,0-0.1-1.8-0.4-2.2c-0.8-1.6-2.6-8.6-3.6-10.3   c-0.2-0.5-0.2-2.4-0.5-2.6c-0.2-0.4-1.2-2-2-3.1c-0.1-0.2-0.3-0.4-0.4-0.5c-0.5-0.5-1.5-2-2.3-2.8c-0.5-0.7-1.2-1.2-1.5-2   c-0.5-0.5-1-1.5-1-1.5c0,0,0-0.1,0-0.1c0-0.1-0.2-0.2,0-0.4c0,0,0,0,0.2,0c1.9,0,4.3,0.3,6.3,0c0,0,0.1,0.1,0.3,0.3   c0,0,0.1,0.1,0.2,0.2l0.2,0.5c2.8,3.2,2.8,5,3.4,6.4h0c0.1,0.2,0.2,0.5,0.3,0.7c0.3,2.1,0.8,5.5,0.7,7.6c0,0.5,0.6,2.6,0.6,3.2   c0,0.5,0.2,1.4,0.2,1.9c0.2,1.2,0.3,3,0.9,4c0,0.5,0.2,1,0.5,1.5c0.2,0.2,0.3,1.1,0.6,1.3C133.7,117.2,133.8,117.5,134,117.8z    M144,102.5c0,3.3-2.9,6.3-2.9,9.3c0,0.2,0,1.1,0,1.3c0,0.2-0.2-0.1-0.4,0.1c-2,0-4,0-6.1,0c-0.2,0-0.7,0-0.7,0   c-0.5-0.2-1.1-4.4-1.1-5.5c0-0.7-0.4-1.6-0.2-2c0.5-0.9,2.8-2.1,3.8-4c1.1-1.1,1.9-2,3.1-3c0.4-0.3,1.4-1.3,2-2.2h0c0,0,0,0,0,0   c0,0,0,0,0,0h0c0.1-0.2,0.2-0.5,0.3-0.7c1-2.7,0.1-3.1-0.2-4.3c0-0.2,0.2-0.8,0.2-0.8l0-0.5c0.1-0.5,0.5,0,0.8,0.4   c0.6,0.8,1.4,0.9,1.4,2.4c0,1.2,0,2.4,0,3.6c0,1.5,0.1,3.1,0.1,4.6C144,101.7,144,102.3,144,102.5z"/>
	<path class="st2" d="M91,38.6l-3.2,4.2c0.3,0.3,0.8,0.2,1,0.5l-1.5,5l-3.6-1l1.5-5.1l0.9,0.3l-0.4-5.4l-3.4,4.4l1.1,0.2l-1.5,5.1   l-3.5-0.9l1.4-5.2l0.8,0.1l-0.3-5.2c-0.8,0.9-2.5,3.3-3.1,4.2c0,0.2,0.5,0.3,0.8,0.3l-1.9,7.2l5.4,1.5L80.7,51l-1.9,6.3   c0,0.2-0.6,0-0.8,0.2c-0.9,0.9-1.8,1.2-1.8,2.5c0,0.4-0.2,0.1-0.3,0.5c-0.1,0.4-0.1,0.6-0.1,0.9c0.1,1.1,1.4,1.5,1.4,2.4   c-0.1,0.6-0.1,0.8-0.3,1.3c-0.2-0.2-1.5-2.2-1.6-2.4c-0.3-0.5-0.8-0.9-1.2-1.3c-1.2-1.1-2.8-1.8-4.2-2.6c-0.2,0-1.9-1-2.2-1   c-0.2-0.2,0-0.7,0-1s0-0.7,0-0.7c-0.2-0.2,0-1,0-1.2c0-0.2,0-0.5,0-0.7c0-0.2,0-0.5,0-0.7c0-0.2,0-0.3,0.2-0.5   c0.2-0.2-0.1-0.5,0-0.7c0.1-0.3,0.2-0.7,0.2-0.7c0-0.1,0-0.2,0-0.3c0-0.2-0.1-0.6-0.3-0.7c0,0,0-0.7,0-1c0-0.2,0.5-1.2,0.5-1.5   v-0.2c0-0.2-0.2-0.5-0.2-0.5c-0.2,0-0.9-1-1.2-1.2c-0.7,0-0.7,1-1.2,1h-0.2c0,0-0.2-0.2-0.2-0.5c0,0-0.1-0.3-0.2-0.5   c-0.1-0.1-0.3-0.1-0.5,0c0,0-0.4,0.6-0.5,0.7c-0.1,0.2-0.3,0.1-0.5,0c-0.3-0.3-0.1-0.4-0.6-0.7c-0.1-0.1-0.5-0.4-0.8,0.3   c0,0.2-0.4,0.7-0.4,0.7c-0.2,0-0.2,0-0.2,0c-0.2,0-0.4-0.2-0.5-0.2c-0.1,0-0.1-0.2-0.2-0.2c0,0-0.3-0.2-0.5,0   c-0.2,0.2-0.2,0.4-0.3,0.5c0,0-0.2,0.5-0.4,0.5c0,0-0.2-0.2-0.2-0.2c0,0-0.3-0.2-0.3-0.2c-0.2,0-0.3,0-0.4,0.1c0,0-0.1,0.1-0.2,0.6   c0,0,0,0.3-0.1,0.5c-0.1,0.2-0.3-0.7-0.4-0.4c-0.1,0.2,0,1.3,0,1.7c0.1,0.4,0.2,1.1,0.5,1.7c0.1,0.2,0.2,0.4,0.3,0.5   c0,0,0,0.5,0,0.7c0,0.2,0.1,1,0,1.5c-0.1,0.3,0,1,0,1.7c0,0.3,0.3,1.6,0.5,1.9c0.1,0.1,0.2,0.1,0.3,0.1c0.1,0.4,0.1,0.7,0.2,1.1   c-0.1,0.3-0.2,0.3-0.4,0.5c0,0.2-1.7,1.2-3.4,2.3c-0.9,0.7-1.9,1.4-2.3,1.9c-0.6,0.8-1.1,3-1.8,5.2c-0.6,1.7-1.2,3.3-2.1,4.2   c-0.4,0.8-2,3.3-3,3.3c-1.7,1.6-3.2-3.9-4.7-7.5c-0.5-1.2-0.9-2.2-1.4-2.6c-0.4,0.5-1.3,0.2-1,0.9c0.2,0.5,0.4,1.2,0.6,1.7   c0.7,1.7,1.5,3.5,2.1,5.2c0.6,1.2,1,2.5,1.5,3.8c0,0.5-0.1,1.1-0.3,1.5c-0.2,0.7-0.5,1.3-0.5,1.8c0,0.8,1.3,2.1,1.8,2.8   c0,0.5,0.7,0.5,0.7,1c-0.8,0.8-1.4,3.7-1.8,4.8c0,0,0,0,0,0.1c-0.3,0.9-0.9,4.5-0.9,4.7c-0.1,0.8-0.3,1.5-0.4,2.3h0   c-0.4,1.8-0.8,3.6,0.3,6c0.2,0.7,0.7,2.8,0.9,3.5c0.2,1,1.2,4,1.5,4.5c0.2,0.5,1.3,1.7,1.3,2.3c0.5,0.5,0.7,0.9,0.7,1.3   c-0.4,0.5-0.8,1.1-1.5,1.5c-1,0.6-2.2,1-3.1,1.8c-0.2,0.2-0.5,0.5-0.6,0.9c0,0,0,1,0.3,1c4,0,5-0.4,7.5-1.6   c0.1-0.1,0.4-0.2,0.8-0.3c1.3-0.2,3.7-0.4,4.4-0.7c0.6,0,0.8-1.2,0.8-1.7c-0.2-0.2-0.5-1.2-0.5-1.2c1.1,0.5,4,0.5,5.4,0.5   c1.6-0.1,1.1,1.4,0,3.1c-1.1,1.7-2.8,3.6-3.5,4c-0.6,0.5-0.9,1.2-0.9,1.5c0.1,1.3,5.9,1,8-0.9c0.9-0.8,1.5-3,3.3-3.2   c0.2-0.5,0.3-0.9,0.4-1.3c0.1-0.9-0.4-1.3-0.3-3.2c0-0.3,5.4-0.2,6.1-0.2c-0.1,0.3,2.5,0.6,6.5,0.7v-2.7c-3.4,0-5.8,0.1-5.8,0.1   l-6.5,0c-0.2-0.9-0.7-1-0.7-2.3c0-1.4,0.5-3.2,0.5-4.8c0-0.1,2-4.4,2.3-5c0-0.2,0.2-1,0.2-1.2l0.4-2.2c0,0,0,0,0-0.1   c0.1-0.5,0.2-1.3,0.2-2.3c0-0.2,0.3,0.2,0.4,0c0.6-1.5,1.5-3.1,1.5-4.7c0,0,0-0.1,0-0.1c0.2-0.2,0.3-0.2,0.3-0.2l3.2,0v-1.9h-3.3   c-0.1,0,0-0.7,0-0.7c0-0.6,1.8-2.4,1.5-3c0.5-1,0.5-2.6,0.5-3.8c0,0,0,0,0-0.2c0-0.1,0.1-0.3,0.2-0.5c0.4-1,1-2.9,1-3.5   c0.2-0.2,0.5-0.2,0.6-0.6c0.6,0,1.4,0.7,2.3,0.7c2.1,0,2.2-0.7,3.3-2.3c0.3-1,0.9-3.2,0.9-5l0,0h0c0,0,0,0,0,0c0-0.8-0.1-5.6-0.5-7   c0-0.2-0.1-0.3-0.1-0.3c-0.2-0.2-1.5-2.8-1.5-3.2l1.9-6.8l0.3-1l0.2-0.8l5,1.5l2.3-7.2c0.5,0.2,0.8,0.3,1,0.2L91,38.6z M66.8,51.4   c0,0.2-0.3,0.7-0.5,0.7s-0.9,0.4-1,0.5c-0.2,0.2,0,0.5,0,0.7c0,0.2,0.5-0.2,0.5,0.1c0,0,0.2,0.1,0.3,0.2c0.2,0,0.5-0.3,0.5-0.2   c0,0-0.2,1.6-0.2,1.8c0,0.1,0.3,0.7,0,0.8c-0.5,0.1-0.6,0-0.6-0.1c0-0.1,0.3-0.5,0.2-0.7c-0.2-0.3-0.2-0.3-0.3-0.7   c-0.1-0.1-0.3-0.2-0.5-0.2l0.2,1c-0.2,0.1-0.6,1-1,0.7c-0.3,0-0.4-0.1-0.7-0.1c-0.6,0-1.2,0.2-1.5,0.2c-0.2,0-0.3-0.1-0.6,0.1   c0,0,0,0,0,0.3c0,0.1,0.8,0.3,0.9,0.3c0,0,0.4,0,0.5,0.2c0.3,0.3,0.5,0.7,1,0.7c0.2,0,0.5-0.2,0.5-0.2h0.2c0.2,0,0.8-0.4,0.8-0.4   l0,0.4c0,0.1-1,1.1-1.2,1.1c-0.3,0-0.6,0.1-1,0c-0.2-0.2-2.3-1.6-2.5-1.8c-0.3-0.1-0.8-0.7-1-1c-0.1-0.2-0.2-0.7-0.2-0.7   c0-0.2,0-0.2,0-0.2c0.2,0,0.2,0,0.2,0c0.1,0,0.5-0.4,0.5-0.5c0-0.3,0.2-0.7,0.2-0.7c0-0.2-0.2-0.5-0.2-0.7v-0.3   c0-0.2,0.1-0.6,0.2-0.7c0.1-0.1,0.8-0.4,1-0.5c0,0,0.1,0,0.2,0c0.5-0.2,1-0.5,1.6-0.5c0.2,0,2.1,0,2.3,0c0.2,0.1,0.7,0.2,0.7,0.2   c0,0,0.1,0.2,0.2,0.3C66.8,51.2,66.8,51.4,66.8,51.4z M58.9,49.3c0-0.3,0.2-0.2,0.2-0.2c0.4,0.1,0.5,0.2,0.6,0.2   c0.2,0,0.2,0,0.4-0.2c0,0,0.2-0.4,0.2-0.7c0-0.2,0-0.3,0-0.4c0.2-0.5,0.6,0.3,0.8,0.5c0.2,0.2,0.4,0,0.5,0c0.1,0,0.3-0.2,0.3-0.3   c0.2-0.3,0.1-0.4,0.3-0.5c0.2,0,0.3,0.2,0.3,0.3c0.1,0.1,0.3,0.4,0.7,0.5c0.1,0,0.4,0,0.5-0.1c0.1-0.2,0.2-0.2,0.3-0.4   c0.3-0.9,0.5-0.3,0.6-0.3c0,0,0.1,0.2,0.2,0.3c0,0,0.2,0.2,0.4,0.2c0,0,0.1,0,0.2-0.2c0,0,0.2-0.2,0.5-0.2c0.2,0.2,0.5,1,0.2,1.2   c-0.2,0.2-0.2,0-0.2,0.2h-0.5c0-0.2-0.2-0.2-0.5-0.2h-0.2c-0.2,0-1.2,0-1.5,0c0,0-0.5,0-0.7,0c-0.4,0-0.9,0.1-1.1,0.2   c-0.2,0-0.9,0.3-0.9,0.3s-0.4,0.1-0.7,0.2c-0.3,0.1-0.2,0-0.5,0.2l-0.2-0.2C58.9,49.6,58.9,49.6,58.9,49.3z M44.9,82.4   c-0.6,0.3-1-0.9-1.3-1.4c0.3-0.4-0.3-1.4,0.9-1.2c0,0.2,1.1,2.6,0.8,2.5C45.2,82.2,45,82.3,44.9,82.4z M43,98.8   c0.1-0.4,0.1-1.1,0.3-2.1c0.3-2,0.7-4.8,1.3-7c0.4-1.6,1-2.9,1.6-3.6c0.2-0.1,0.5,0.1,0.8,0.1c0.4,1.3,0.8,2.3,1.2,3.4   c0.4,1.1,0.8,2.3,1.1,3.7v3.3l0.1,8.5c0,0.5-0.5,5.5-0.8,6.1l-0.7,2C46.4,109.8,43,102.7,43,98.8z M53.9,85.3h-0.2   c-0.2,0-1,0-1.8,0l-3.3-0.5c0-0.4-0.3-0.4-0.7-1.2c0.9-1.1,1.8-3.4,2.8-4.3c0.1-0.1,0.5-0.2,0.6-0.3c3.5-2,4-5.2,4.8-8.8   c0.2-1.1,3.2,1.5,3,6.7c0,0.9-1.1,1.6-1.7,2.4c-0.2,0.3-0.3,0.6-0.3,1C57.8,83.4,53.9,83.9,53.9,85.3z M51.1,95.1   c0-0.2,0.3,0.4,0.9,1.5c1.3,2.8,3.6,8.3,4.1,8.3c0.2,0.3,1-0.1,0.5-0.9c-0.2-0.5-0.5-2.3-0.8-2.6c-0.2-0.4-1.2-2.8-2-4.8   c-0.5-1.3-1-2.5-1-2.6c0.7-0.7,1.7,0.5,2.7,2.6c2,4.1,4.2,11.4,4.2,12.4c-0.8,3.5-7.7-6.5-8.7-12.4C51.1,96.1,51,95.6,51.1,95.1z    M50.8,89.6c-0.4,0-0.8-1.9-0.8-2.3l-0.2-0.5c1.3,0.6,1.4,0.2,2.3,0.2c0.3-0.1,0.8-0.3,0.7-0.2C52.6,87,51.1,89.6,50.8,89.6z    M57.8,96.9c0.1-0.1,0.1-0.1,0.3-0.2c0.9-0.6,2.3-1.5,3-1.5c0,0.5,0,1,0,1.5c0,2.3,0.3,4.4,0.3,6.7c0,0,0.1,4.4,0.1,5.3   c0,1.7-0.2,0.7-0.5,0.1C60.8,104.9,59.1,100.6,57.8,96.9z M57.4,95.6c-0.4,0.3-3.5-3.2-3.9-3.7c-0.5-0.5,0.7-1.5,1.1-1.9   c0.1-0.1,0.2-0.3,0.3-0.4c0.2-0.3,0.4-0.7,0.7-0.7c0.6,0.1,1.2,0.4,1.8,0.7c0.6,0.3,1.3,0.7,2.1,1c0.6,0.4,1.5,0.8,2.2,1.2   C60.8,93.2,58.2,95,57.4,95.6z M53.3,115.3c-0.6,1.2-2.7,0.6-3.5,1c-0.3,0.2-1.3,0.8-2.2,1.1c-0.2,0-0.4,0.2-0.6,0.2   c-0.6,0.2-1.1,0.5-1.7,0.5c-0.5,0.3-1.9,0.3-2.2,0.2c-0.2,0,0.2-0.4,0.6-0.6c0.2-0.1,0.4-0.2,0.4-0.3c1.7-0.3,3.3-1.2,4.7-2.6   c0.3-0.3,0.8-1.2,1.1-1.6c0.1-0.6,0.3-2.5,0.4-3.2c0-0.5,0.1-2.1,0.2-2.5l0.6-6.1c0.5,1,2.4,4.6,2.4,4.8c-0.3,2-0.8,3.8-0.8,5.8   C52.7,113.2,54,113.7,53.3,115.3z M54.4,112.6c-0.3-0.8-0.2-2.5,0.2-4.6c1.2,1.4,2.6,2.6,4.5,3.6c1.3,0,1.1-0.6,1.8-1.2   c0.7-0.9,0.5,1.9,0.2,2.5C59.1,112.9,56.5,112.6,54.4,112.6z M66,117.8c-0.1,0.2-0.2,0.3-0.5,0.4c-1,0.7-1.3,0.9-1.8,1.6   c-0.9,1.1-0.8,1-1.6,1.8l-2.2,1l-1.4,0.1l-0.9-0.2c0.1-0.7,1.2-0.8,2.4-2.1c0.8-0.9,1.6-2.1,2-2.8c0.2-0.4,0.4-0.7,0.4-0.8   c0-0.2,0.7-1.4,0.9-2.2c0.1-1.4,0-6.2,0-7.6c0-3.4,0.2-6.8,0.7-10.3c0.1-1.2,0.3-2.3,0.5-3.5c0.2-0.2,0.6-0.7,1-0.3   c0.4,0.2,1.4,0.6,1.8,0.8c-0.1,0.9-0.4,1.9-0.7,3h0c-0.9,3-2.2,6.4-2.6,8.4c0.3,0.5,1.2,0.6,1.5,0.9h0.2c0,0.2-0.2,1-0.2,1   c0,1.4-0.5,5,0.1,6.2c-0.2,1.3,0.3,2.1,0.6,3.4C66.2,116.8,66.2,117.4,66,117.8z M68.8,96.7c-0.1,1-0.3,2.4-0.5,3.2   c-0.6,0.7-1.9,4.5-2.2,4.8l2.3-8.1l0.4-1.3C69,94.9,68.9,95.6,68.8,96.7z M69.2,87.2c0,0.3-0.2,1.4-0.5,2.4   C68.4,90.9,68,92,67.5,92c-0.9-0.9-2.4-1.7-3.5-2.3c0,0-0.3-0.1-0.4-0.2c-1.6-0.5-7-1.5-7-2.4c1.7-2.5,3.7-3,6.6-3   c0.7,0.2,6.1,1.9,6.1,2.3C69.2,86.7,69.2,87.2,69.2,87.2z M73.1,76.1c-0.2-0.2-0.1-4.4,0.3-4c0.1,1.3,0.2,0.5,0.9,1.3L73.1,76.1z    M76.2,68.5c0,0.3-0.1,0.6-0.4,0.8C75.5,70,75,70,75.1,70.7V71c0,0,0,0-0.2,0c0,0,0,0-0.2-0.2l-0.5-0.5c-0.5-0.5-1.1-1.2-1.7-1.7   c-0.1-0.1-0.3-0.1-0.4-0.2c-0.3-0.1-0.6,0-0.9,0c0,0-0.4,0.1-1,0.2c-1.1,0.3-2.8,0.8-3.2,1.2c-0.1,0.4,0.2,0.3,1.5,0.6   c0.6,0,2.3-0.4,3.5-0.2c0.3,0,0.1,0.8,0.1,0.8c-0.5,0-0.2,6.4,0.3,7.4c0,0.1-0.1,0.4-0.2,0.7c-0.3,1.6-1.3,5.1-2,5.1   c-0.9,0-1.5-0.7-2.5-0.7c-0.4-0.2-4.2-1.3-5-1.5c-0.7,0-1.7-0.6-1-1.2l1.2,0.2c2.1,0.3,4.2,0.4,6.3,0.2c1-1,0.6-0.6,0.2-1.5   c-0.3-0.2-0.6-0.3-0.9-0.3c-0.1,0-0.3,0.4-0.5,0.4c-1.2,0.1-3,0.2-3.9-0.6c-0.2-0.3-0.3-0.6-0.3-1.1c-0.3,0-1.3-3.8-1.3-3.9   c0.1-0.6,1.8-0.2,2.4-0.2c0.2-0.1,0.8-1.1,0.8-1.6c-0.6-2.1-1.4-1.3-3.9-1.2c-0.5,0-2.5-1-2.5-1.6c-0.2-0.3-0.4-0.6-0.6-0.8   c-0.9-1.1-1.5-1.2-2.4-0.2c0,0-0.1,0.1-0.1,0.2c-1.5,2.8-1.2,6.3-4.2,8.3c-0.6,0.3-0.5,0.4-1.7,1.3c0,0.3-0.2,0.6-0.3,0.9   c-0.2,0.6-0.6,1.1-1,1.9c-0.9,0.7-1.9,2.1-2.3,0.2c-0.3-0.2-0.9-1.9,0-1.7c0.2,0,0.6-0.1,0.9-0.4c0.4-0.4,1-1,0.9-1.4   c-1.5,0.4-2.3,2-3.2,0.9c0-1.1,4.2-1.5,4.2-3.2c0.1,0,1.2-1.7,1.5-2c1.1-1.2,1.6-3,2-4.8c0.4-1.8,0.8-3.6,2-4.7   c0.4-0.5,1.8-1.5,3.2-2.3c1.3-0.7,2.5-1.3,3.2-1.3l0.2,0.2c0,0.1,0.8,0.8,1,1c0,0,0.1,0,0.1,0.1h0c0.7,0.4,2.3,0.4,3.6,0   c0.7-0.2,1.2-0.7,1.2-1.3c0-0.7,0-0.1,0-0.8L67,59.1c0-0.2,0-0.2,0.2-0.2l0.2,0.2c0.8,0,2.7,1.1,4.4,2.4c1.3,1,2.5,2.1,2.8,2.7   C75.3,64.8,76.4,67.1,76.2,68.5z M77.6,68.5l0.6-1.9c0.2,0.7,0.1,1.3,0,1.9c-0.2,1.1-0.8,2-1.1,2.3L77.6,68.5z M80.9,61.6   L80.9,61.6c0.7,2.2,0.5,4.2,0.5,6.6c0,0.1,0,0.2,0,0.3h0c0,2.2,0.2,3.5-1.7,5.5c-1.1,0-3.7-1.7-1.9-1.7c2.3-0.2,0-2.2,1.1-3.4   c0-0.1,0-0.2,0.1-0.4c0.2-0.4,0.5-1,0.5-1.4c0-0.2,0-1.1,0-1.6c0-0.3-0.4-0.9-0.7-1.4l0.2-0.7c0-0.4,0-0.3,0.1-0.7   c0.1-0.4,0-0.8-0.4-0.7c-0.5,0-1,0.3-1.2,0.3c-0.4,0-0.6-0.3-0.6-0.6c0-0.9,1.2-2.4,2.1-2.2c0,0,0.8,0.1,1,0.5   C80.4,60.4,80.7,61,80.9,61.6z"/>
</g>
</svg>